<?xml version="1.0" encoding="utf-8"?>
<!-- Generator: Adobe Illustrator 16.0.0, SVG Export Plug-In . SVG Version: 6.00 Build 0)  -->
<!DOCTYPE svg PUBLIC "-//W3C//DTD SVG 1.1//EN" "http://www.w3.org/Graphics/SVG/1.1/DTD/svg11.dtd">
<svg version="1.1" id="Capa_1" xmlns="http://www.w3.org/2000/svg" xmlns:xlink="http://www.w3.org/1999/xlink" x="0px" y="0px"
	 width="30px" height="30px" viewBox="0 291 30 30" enable-background="new 0 291 30 30" xml:space="preserve">
<g>
	<path fill="#FFFFFF" d="M7.772,302.102c0.419,0,0.78-0.123,1.083-0.369s0.455-0.599,0.455-1.06c0-0.351-0.121-0.653-0.362-0.906
		s-0.567-0.379-0.978-0.379c-0.278,0-0.507,0.039-0.687,0.116s-0.322,0.18-0.427,0.308s-0.204,0.292-0.297,0.492
		s-0.179,0.39-0.256,0.567c-0.045,0.096-0.127,0.171-0.246,0.226s-0.255,0.082-0.41,0.082c-0.182,0-0.35-0.074-0.502-0.222
		s-0.229-0.345-0.229-0.591c0-0.237,0.072-0.486,0.215-0.749s0.353-0.512,0.629-0.749s0.619-0.427,1.029-0.571
		s0.868-0.215,1.374-0.215c0.442,0,0.845,0.061,1.21,0.181s0.681,0.295,0.95,0.523s0.472,0.492,0.608,0.793s0.205,0.625,0.205,0.971
		c0,0.456-0.099,0.847-0.297,1.172s-0.482,0.644-0.851,0.954c0.355,0.191,0.655,0.41,0.899,0.656s0.427,0.519,0.55,0.817
		c0.123,0.298,0.185,0.62,0.185,0.967c0,0.415-0.083,0.815-0.25,1.203c-0.167,0.388-0.411,0.733-0.735,1.036
		c-0.324,0.304-0.708,0.541-1.152,0.711c-0.444,0.172-0.936,0.257-1.473,0.257c-0.547,0-1.037-0.098-1.47-0.294
		s-0.79-0.441-1.07-0.734c-0.28-0.295-0.492-0.599-0.636-0.914c-0.144-0.314-0.215-0.574-0.215-0.779
		c0-0.265,0.085-0.478,0.256-0.64c0.171-0.161,0.384-0.242,0.639-0.242c0.127,0,0.25,0.037,0.369,0.113
		c0.119,0.074,0.196,0.165,0.232,0.27c0.237,0.634,0.491,1.104,0.762,1.413c0.271,0.307,0.653,0.461,1.145,0.461
		c0.283,0,0.555-0.069,0.817-0.209c0.262-0.139,0.479-0.345,0.649-0.619s0.256-0.59,0.256-0.95c0-0.533-0.146-0.951-0.438-1.254
		c-0.292-0.304-0.697-0.455-1.217-0.455c-0.091,0-0.232,0.009-0.424,0.027s-0.314,0.027-0.369,0.027
		c-0.25,0-0.444-0.063-0.581-0.188c-0.137-0.126-0.205-0.3-0.205-0.523c0-0.219,0.082-0.396,0.246-0.53s0.408-0.202,0.731-0.202
		H7.772z"/>
	<path fill="#FFFFFF" d="M13.743,302.731c0.31-0.369,0.647-0.643,1.012-0.82s0.772-0.267,1.224-0.267c0.433,0,0.833,0.081,1.2,0.243
		s0.688,0.392,0.964,0.69s0.489,0.651,0.639,1.056s0.226,0.829,0.226,1.271c0,0.643-0.147,1.226-0.441,1.75
		c-0.294,0.524-0.704,0.933-1.23,1.228c-0.526,0.293-1.122,0.44-1.788,0.44c-0.766,0-1.426-0.187-1.982-0.561
		s-0.981-0.927-1.275-1.658c-0.294-0.732-0.441-1.626-0.441-2.684c0-0.861,0.089-1.631,0.267-2.311s0.433-1.242,0.766-1.688
		s0.736-0.784,1.21-1.012s1.014-0.342,1.62-0.342c0.583,0,1.097,0.114,1.542,0.342s0.779,0.51,1.005,0.848s0.338,0.661,0.338,0.971
		c0,0.187-0.071,0.356-0.212,0.509s-0.321,0.229-0.54,0.229c-0.191,0-0.369-0.061-0.533-0.181s-0.285-0.288-0.362-0.502
		c-0.105-0.273-0.271-0.493-0.499-0.66s-0.492-0.25-0.793-0.25c-0.242,0-0.482,0.069-0.721,0.208s-0.441,0.327-0.605,0.564
		C13.999,300.63,13.802,301.491,13.743,302.731z M15.589,306.977c0.46,0,0.841-0.188,1.142-0.565
		c0.301-0.375,0.451-0.869,0.451-1.479c0-0.415-0.071-0.771-0.212-1.069c-0.141-0.299-0.335-0.527-0.581-0.684
		c-0.246-0.158-0.517-0.236-0.813-0.236c-0.283,0-0.553,0.075-0.81,0.226s-0.465,0.368-0.622,0.653
		c-0.157,0.284-0.236,0.618-0.236,1.001c0,0.615,0.16,1.128,0.479,1.538C14.705,306.771,15.106,306.977,15.589,306.977z"/>
	<path fill="#FFFFFF" d="M26.132,303.237c0,0.747-0.045,1.39-0.137,1.928s-0.26,1.025-0.506,1.463
		c-0.31,0.538-0.711,0.952-1.203,1.244s-1.039,0.438-1.641,0.438c-0.693,0-1.313-0.196-1.863-0.588s-0.963-0.935-1.241-1.627
		c-0.141-0.378-0.245-0.796-0.311-1.255c-0.066-0.457-0.099-0.953-0.099-1.486c0-0.688,0.037-1.308,0.109-1.859
		s0.187-1.025,0.342-1.422c0.269-0.656,0.66-1.156,1.172-1.5s1.125-0.516,1.835-0.516c0.469,0,0.896,0.076,1.278,0.229
		s0.719,0.376,1.008,0.67s0.534,0.657,0.735,1.09C25.959,300.796,26.132,301.86,26.132,303.237z M24.259,303.1
		c0-0.834-0.05-1.517-0.15-2.047s-0.269-0.932-0.506-1.203s-0.565-0.407-0.984-0.407c-0.602,0-1.02,0.303-1.254,0.909
		s-0.352,1.541-0.352,2.803c0,0.856,0.05,1.559,0.15,2.105s0.269,0.96,0.506,1.242c0.237,0.279,0.558,0.42,0.964,0.42
		c0.419,0,0.748-0.146,0.984-0.438c0.237-0.292,0.403-0.709,0.499-1.251S24.259,303.98,24.259,303.1z"/>
</g>
<g>
	<g>
		<path fill="#FFFFFF" d="M24.941,297.643c0-0.215,0.042-0.42,0.127-0.615s0.198-0.362,0.339-0.5s0.307-0.248,0.496-0.327
			s0.389-0.12,0.601-0.12c0.277,0,0.536,0.069,0.776,0.208s0.431,0.328,0.571,0.569s0.21,0.503,0.21,0.786
			c0,0.28-0.07,0.54-0.21,0.779s-0.329,0.427-0.566,0.564s-0.498,0.205-0.781,0.205c-0.43,0-0.797-0.151-1.104-0.454
			S24.941,298.069,24.941,297.643z M25.751,297.643c0,0.205,0.075,0.379,0.225,0.522s0.326,0.215,0.527,0.215
			s0.375-0.071,0.52-0.212s0.217-0.316,0.217-0.525c0-0.14-0.033-0.267-0.1-0.381s-0.158-0.204-0.273-0.271s-0.237-0.1-0.364-0.1
			c-0.205,0-0.382,0.074-0.53,0.222S25.751,297.438,25.751,297.643z"/>
	</g>
</g>
<path fill="#FFFFFF" d="M8.808,313.015"/>
<g>
	<path fill="#FFFFFF" d="M15.22,316.771c-0.631,0-1.25-0.01-1.859-0.027c-0.552-0.017-0.986-0.478-0.97-1.029s0.5-0.952,1.029-0.971
		c0.589,0.018,1.189,0.027,1.8,0.027c7.372,0,11.932-1.279,12.684-2.073c-0.752-0.795-5.312-2.074-12.684-2.074
		c-7.357,0-11.914,1.274-12.679,2.069c0.378,0.357,1.947,1.164,5.985,1.681c0.548,0.07,0.935,0.571,0.865,1.119
		s-0.573,0.928-1.119,0.865c-5.171-0.662-7.793-1.894-7.793-3.66c0-3.96,13.232-4.074,14.741-4.074s14.741,0.114,14.741,4.074
		C29.96,316.656,16.729,316.771,15.22,316.771z"/>
</g>
<path fill="#FFFFFF" d="M8.28,315.632l-1.134,0.259c-0.302,0.067-0.492,0.368-0.424,0.672c0.051,0.239,0.248,0.405,0.474,0.432
	c0.063,0.009,0.127,0.008,0.193-0.008l3.684-0.84c0.215-0.051,0.38-0.22,0.425-0.438c0.044-0.216-0.042-0.442-0.22-0.57l-3.061-2.22
	c-0.252-0.183-0.601-0.124-0.781,0.129c-0.182,0.253-0.125,0.607,0.126,0.787l0.956,0.691L8.28,315.632z"/>
</svg>
