<?xml version="1.0" encoding="utf-8"?>
<!-- Generator: Adobe Illustrator 23.0.5, SVG Export Plug-In . SVG Version: 6.00 Build 0)  -->
<svg version="1.1" id="Capa_1" xmlns="http://www.w3.org/2000/svg" xmlns:xlink="http://www.w3.org/1999/xlink" x="0px" y="0px"
	 viewBox="0 0 82.94 55.7" style="enable-background:new 0 0 82.94 55.7;" xml:space="preserve">
<style type="text/css">
	.st0{fill:#FFFFFF;}
</style>
<g>
	<path class="st0" d="M58.34,52.98l-2.6-7.66c-0.14-0.42-0.54-0.7-0.98-0.7h-0.15V29.61c0-7.25-5.9-13.15-13.15-13.15
		c-7.25,0-13.15,5.9-13.15,13.15v15.01h-0.15c-0.44,0-0.84,0.28-0.98,0.7l-2.6,7.66c-0.11,0.32-0.06,0.66,0.14,0.94
		c0.19,0.27,0.51,0.43,0.84,0.43h31.78c0.33,0,0.65-0.16,0.84-0.43C58.4,53.65,58.45,53.3,58.34,52.98 M30.39,29.61
		c0-6.11,4.97-11.08,11.08-11.08s11.08,4.97,11.08,11.08v15.01H30.39V29.61z M27.02,52.28l1.89-5.59h25.11l1.89,5.59H27.02z"/>
	<path class="st0" d="M41.47,1.35c-0.57,0-1.04,0.46-1.04,1.04V8.6c0,0.57,0.46,1.04,1.04,1.04c0.57,0,1.04-0.46,1.04-1.04V2.39
		C42.5,1.82,42.04,1.35,41.47,1.35"/>
	<path class="st0" d="M42.2,11.9c-0.19-0.19-0.46-0.3-0.73-0.3c-0.27,0-0.54,0.11-0.73,0.3c-0.19,0.19-0.3,0.46-0.3,0.73
		c0,0.27,0.11,0.54,0.3,0.73c0.19,0.19,0.46,0.3,0.73,0.3c0.27,0,0.54-0.11,0.73-0.3c0.19-0.19,0.3-0.46,0.3-0.73
		C42.5,12.36,42.39,12.09,42.2,11.9"/>
	<path class="st0" d="M24.85,29.06H20.1c-0.57,0-1.04,0.46-1.04,1.04c0,0.57,0.46,1.04,1.04,1.04h4.75c0.57,0,1.04-0.46,1.04-1.04
		C25.89,29.52,25.43,29.06,24.85,29.06"/>
	<path class="st0" d="M16.74,29.36c-0.19-0.19-0.46-0.3-0.73-0.3s-0.54,0.11-0.73,0.3c-0.19,0.19-0.3,0.46-0.3,0.73
		s0.11,0.54,0.3,0.73c0.19,0.19,0.46,0.3,0.73,0.3s0.54-0.11,0.73-0.3c0.19-0.19,0.3-0.46,0.3-0.73S16.93,29.56,16.74,29.36"/>
	<path class="st0" d="M34.5,10.56l-1.4-3.39c-0.22-0.53-0.82-0.78-1.35-0.56c-0.53,0.22-0.78,0.82-0.56,1.35l1.4,3.39
		c0.17,0.4,0.55,0.64,0.96,0.64c0.13,0,0.27-0.02,0.4-0.08C34.47,11.7,34.72,11.09,34.5,10.56"/>
	<path class="st0" d="M22.73,21.21l-3.39-1.4c-0.53-0.22-1.13,0.03-1.35,0.56c-0.22,0.53,0.03,1.13,0.56,1.35l3.39,1.4
		c0.13,0.05,0.26,0.08,0.39,0.08c0.41,0,0.79-0.24,0.96-0.64C23.51,22.04,23.26,21.43,22.73,21.21"/>
	<path class="st0" d="M63.27,29.06h-4.75c-0.57,0-1.04,0.46-1.04,1.04c0,0.57,0.46,1.04,1.04,1.04h4.75c0.57,0,1.04-0.46,1.04-1.04
		C64.3,29.52,63.84,29.06,63.27,29.06"/>
	<path class="st0" d="M67.66,29.36c-0.19-0.19-0.46-0.3-0.73-0.3c-0.27,0-0.54,0.11-0.73,0.3c-0.19,0.19-0.3,0.46-0.3,0.73
		s0.11,0.54,0.3,0.73c0.19,0.19,0.46,0.3,0.73,0.3c0.27,0,0.54-0.11,0.73-0.3c0.19-0.19,0.3-0.46,0.3-0.73S67.86,29.56,67.66,29.36"
		/>
	<path class="st0" d="M61.94,9.62c-0.4-0.4-1.06-0.4-1.46,0l-5.09,5.09c-0.4,0.4-0.4,1.06,0,1.46c0.2,0.2,0.47,0.3,0.73,0.3
		c0.26,0,0.53-0.1,0.73-0.3l5.09-5.09C62.34,10.68,62.34,10.03,61.94,9.62"/>
	<path class="st0" d="M27.56,14.72l-5.09-5.09c-0.4-0.4-1.06-0.4-1.46,0c-0.4,0.4-0.4,1.06,0,1.46l5.09,5.09
		c0.2,0.2,0.47,0.3,0.73,0.3c0.26,0,0.53-0.1,0.73-0.3C27.96,15.78,27.96,15.12,27.56,14.72"/>
	<path class="st0" d="M51.19,6.62c-0.53-0.22-1.13,0.03-1.35,0.56l-1.4,3.39c-0.22,0.53,0.03,1.13,0.56,1.35
		c0.13,0.05,0.26,0.08,0.4,0.08c0.41,0,0.79-0.24,0.96-0.64l1.4-3.39C51.97,7.44,51.72,6.84,51.19,6.62"/>
	<path class="st0" d="M64.95,20.37c-0.22-0.53-0.82-0.78-1.35-0.56l-3.39,1.4c-0.53,0.22-0.78,0.82-0.56,1.35
		c0.17,0.4,0.55,0.64,0.96,0.64c0.13,0,0.27-0.03,0.4-0.08l3.39-1.4C64.91,21.5,65.16,20.9,64.95,20.37"/>
	<path class="st0" d="M41.47,22.99c-1.71,0-3.1,1.39-3.1,3.1v4.97c0,1.71,1.39,3.11,3.1,3.11c1.71,0,3.11-1.39,3.11-3.11v-4.97
		C44.57,24.38,43.18,22.99,41.47,22.99 M42.5,31.06c0,0.57-0.46,1.04-1.04,1.04c-0.57,0-1.04-0.46-1.04-1.04v-4.97
		c0-0.57,0.46-1.04,1.04-1.04c0.57,0,1.04,0.46,1.04,1.04V31.06z"/>
	<path class="st0" d="M41.47,36.24c-1.71,0-3.11,1.39-3.11,3.1c0,1.71,1.39,3.11,3.11,3.11c1.71,0,3.11-1.39,3.11-3.11
		C44.57,37.63,43.18,36.24,41.47,36.24 M41.47,40.38c-0.57,0-1.04-0.46-1.04-1.04c0-0.57,0.46-1.04,1.04-1.04
		c0.57,0,1.04,0.46,1.04,1.04C42.5,39.91,42.04,40.38,41.47,40.38"/>
</g>
</svg>
