<?xml version="1.0" encoding="utf-8"?>
<!-- Generator: Adobe Illustrator 23.0.5, SVG Export Plug-In . SVG Version: 6.00 Build 0)  -->
<svg version="1.1" id="Capa_1" xmlns="http://www.w3.org/2000/svg" xmlns:xlink="http://www.w3.org/1999/xlink" x="0px" y="0px"
	 viewBox="0 0 68.53 65.42" style="enable-background:new 0 0 68.53 65.42;" xml:space="preserve">
<style type="text/css">
	.st0{fill:#FFFFFF;}
</style>
<g>
	<path class="st0" d="M8.49,46.65v2.21c0,4.47,0,8.94,0,13.4c0,1.25-0.31,1.56-1.57,1.56c-1.17,0-2.34,0.01-3.51,0
		c-0.99-0.01-1.36-0.39-1.36-1.36c0-19.17,0-38.35,0-57.52c0-1.77,1.17-3.16,2.78-3.34c1.73-0.19,3.2,0.79,3.57,2.46
		c0.12,0.55,0.1,1.14,0.15,1.79h0.79c17.43,0,34.86,0,52.29,0c0.61,0,1.23-0.01,1.84,0.03c1.64,0.09,2.9,1.36,3.01,3
		c0.01,0.21,0.01,0.42,0.01,0.63c0,11.16,0,22.32,0,33.48c0,2.38-1.28,3.66-3.66,3.66c-17.81,0-35.63,0.01-53.44,0.01H8.49z
		 M8.52,44.51c0.95,0,1.83,0,2.71,0c17.18,0,34.36,0,51.54,0c1.21,0,1.56-0.34,1.56-1.53c0-5,0-10.01,0-15.01
		c0-0.2-0.02-0.4-0.03-0.61H8.52V44.51z M27.85,25.12h36.47v-0.67c0-4.96,0-9.93,0-14.89c0-1.24-0.32-1.56-1.57-1.56
		C51.35,8,39.94,8,28.54,8c-0.22,0-0.45,0.02-0.69,0.03V25.12z M8.52,25.13h17.11V8.04H8.52V25.13z M6.33,61.67v-0.68
		c0-18.4,0-36.81,0-55.21c0-0.36,0.01-0.73-0.02-1.09c-0.06-0.56-0.5-0.95-1.04-0.96c-0.52,0-0.94,0.35-1.03,0.9
		C4.2,4.81,4.21,5,4.21,5.19c0,18.52,0,37.04-0.01,55.56c0,0.21-0.03,0.43,0.02,0.63c0.03,0.11,0.17,0.27,0.27,0.27
		C5.08,61.68,5.67,61.67,6.33,61.67"/>
	<path class="st0" d="M13.23,14.24c0.21,0,0.42,0,0.63,0c1.44-0.03,1.06,0.22,1.52-1.15c0.22-0.67,0.41-1.35,0.63-2.03
		c0.17-0.54,0.5-0.92,1.11-0.9c0.58,0.02,0.88,0.39,1.05,0.91c0.28,0.9,0.58,1.79,0.83,2.69c0.1,0.35,0.26,0.49,0.64,0.48
		c0.86-0.02,1.72,0,2.59,0c0.56,0,1.03,0.16,1.23,0.74c0.19,0.58-0.08,1-0.53,1.33c-0.73,0.55-1.46,1.12-2.2,1.67
		c-0.25,0.19-0.32,0.37-0.22,0.68c0.3,0.91,0.57,1.83,0.84,2.75c0.2,0.68,0.09,1.14-0.36,1.44c-0.52,0.34-0.98,0.17-1.43-0.17
		c-0.7-0.54-1.41-1.06-2.09-1.61c-0.3-0.24-0.5-0.22-0.79,0.01c-0.68,0.56-1.4,1.07-2.09,1.61c-0.45,0.35-0.92,0.49-1.42,0.14
		c-0.5-0.35-0.53-0.86-0.37-1.39c0.27-0.92,0.55-1.83,0.86-2.74c0.11-0.33,0.05-0.52-0.23-0.72c-0.73-0.53-1.43-1.09-2.15-1.63
		c-0.44-0.33-0.74-0.73-0.57-1.32c0.15-0.52,0.55-0.76,1.27-0.77C12.39,14.23,12.81,14.24,13.23,14.24 M15.03,16.47
		c1.08,0.55,1.28,1.37,0.87,2.44c0.82-0.76,1.58-0.72,2.4,0.01c-0.52-1.12-0.14-1.86,0.81-2.46c-1.07,0.04-1.84-0.26-2.04-1.48
		C16.91,16.24,16.12,16.5,15.03,16.47"/>
</g>
</svg>
