<?xml version="1.0" encoding="utf-8"?>
<!-- Generator: Adobe Illustrator 23.0.5, SVG Export Plug-In . SVG Version: 6.00 Build 0)  -->
<svg version="1.1" id="Capa_1" xmlns="http://www.w3.org/2000/svg" xmlns:xlink="http://www.w3.org/1999/xlink" x="0px" y="0px"
	 viewBox="0 0 67.94 67.7" style="enable-background:new 0 0 67.94 67.7;" xml:space="preserve">
<style type="text/css">
	.st0{fill:#FFFFFF;}
</style>
<g>
	<path class="st0" d="M51.67,50.57c-0.84-2.53-2.99-4.39-5.61-4.87l-6.96-1.26V43.9c1.21-0.7,2.26-1.64,3.1-2.76h2.1
		c1.72,0,3.12-1.4,3.12-3.12V25.52c0-7.46-6.07-13.54-13.54-13.54c-7.46,0-13.54,6.07-13.54,13.54v7.29c0,2.01,1.43,3.69,3.32,4.08
		c0.58,2.99,2.45,5.52,5.01,7.01v0.54l-6.96,1.26c-2.62,0.48-4.77,2.34-5.61,4.87l-0.42,1.25l-3.55-3.55
		c-0.41-0.41-0.41-1.07,0-1.47l4.11-4.11l-7.72-7.72L3.9,39.62c-1.38,1.38-2.13,3.21-2.13,5.15c0,1.95,0.76,3.78,2.13,5.15
		l14.07,14.07c1.38,1.38,3.21,2.14,5.15,2.14s3.78-0.76,5.12-2.1l5.07-4.65l-1.58-1.58h22.34L51.67,50.57z M33.89,48l-3.12-3.12
		v-0.05c0.99,0.31,2.04,0.48,3.12,0.48s2.14-0.17,3.12-0.48v0.05L33.89,48z M44.3,39.06h-0.88c0.3-0.69,0.53-1.41,0.68-2.17
		c0.45-0.09,0.86-0.27,1.24-0.49v1.62C45.35,38.59,44.88,39.06,44.3,39.06 M44.3,31.02c0.62,0.36,1.04,1.03,1.04,1.79
		c0,0.77-0.42,1.43-1.04,1.79V31.02z M22.44,32.81c0-0.77,0.42-1.43,1.04-1.79v3.59C22.86,34.24,22.44,33.58,22.44,32.81
		 M23.48,27.61v1.19c-0.37,0.1-0.72,0.24-1.04,0.43v-3.7c0-6.32,5.14-11.45,11.45-11.45s11.45,5.14,11.45,11.45v3.7
		c-0.32-0.19-0.67-0.34-1.04-0.43v-1.19h-1.04c-3.08,0-5.97-1.2-8.15-3.38l-1.22-1.22l-1.22,1.22c-2.18,2.18-5.07,3.38-8.15,3.38
		H23.48z M25.56,34.89v-5.24c3.13-0.24,6.04-1.53,8.33-3.7c2.29,2.18,5.2,3.47,8.33,3.7v5.24c0,1.52-0.41,2.94-1.13,4.16h-7.2v2.08
		h5.49c-1.47,1.29-3.39,2.08-5.49,2.08C29.3,43.22,25.56,39.49,25.56,34.89 M13.32,42.69l-1.13,1.13l-4.77-4.78l1.13-1.13
		L13.32,42.69z M23.12,64.05c-1.39,0-2.7-0.54-3.68-1.53L5.37,48.45c-0.98-0.98-1.52-2.29-1.52-3.68c0-1.39,0.54-2.7,1.52-3.68
		l0.57-0.57l4.78,4.77l-0.04,0.04c-1.22,1.22-1.22,3.2,0,4.42l7.47,7.47c0.59,0.59,1.37,0.91,2.21,0.91c0.84,0,1.62-0.33,2.17-0.88
		l0.08-0.07l4.8,4.8l-0.6,0.55C25.82,63.5,24.51,64.05,23.12,64.05 M28.94,60.57l-4.79-4.79l1.38-1.24l4.78,4.78L28.94,60.57z
		 M29.66,55.72l-4.06-4.06l-4.51,4.08c-0.39,0.39-1.08,0.39-1.47,0l-2.27-2.27l0.75-2.24c0.6-1.8,2.14-3.14,4.01-3.48l7.28-1.32
		l4.51,4.52l4.52-4.52l7.28,1.32c1.87,0.34,3.41,1.67,4.01,3.48l1.5,4.49H29.66z"/>
	<path class="st0" d="M63.05,1.58H48.47c-1.72,0-3.12,1.4-3.12,3.12v8.33c0,1.72,1.4,3.12,3.12,3.12h2.78l-1.08,6.28l10.05-6.28
		h2.82c1.72,0,3.12-1.4,3.12-3.12V4.7C66.17,2.98,64.77,1.58,63.05,1.58 M64.09,13.03c0,0.57-0.47,1.04-1.04,1.04h-3.42l-6.61,4.13
		l0.71-4.13h-5.25c-0.57,0-1.04-0.47-1.04-1.04V4.7c0-0.57,0.47-1.04,1.04-1.04h14.58c0.57,0,1.04,0.47,1.04,1.04V13.03z"/>
	<rect x="49.51" y="5.74" class="st0" width="12.49" height="2.08"/>
	<rect x="49.51" y="9.9" class="st0" width="8.33" height="2.08"/>
	<rect x="59.92" y="9.9" class="st0" width="2.08" height="2.08"/>
	<path class="st0" d="M11.52,27.46l-1.07-1.79l-2.82,1.69C10.58,15.36,21.38,6.78,33.89,6.78c2.73,0,5.43,0.41,8.02,1.21L42.53,6
		c-2.79-0.86-5.69-1.3-8.64-1.3c-13.6,0-25.32,9.41-28.37,22.54l-1.97-3.29l-1.79,1.07l3.66,6.1L11.52,27.46z"/>
	<path class="st0" d="M55.91,27.07l1.78,1.07l1.82-3.04c0.96,2.81,1.45,5.74,1.45,8.75c0,6.19-2.14,12.25-6.04,17.04l1.62,1.31
		c4.19-5.17,6.5-11.69,6.5-18.36c0-3.18-0.51-6.3-1.51-9.27l3.06,1.84l1.07-1.79l-6.1-3.66L55.91,27.07z"/>
</g>
</svg>
