<?xml version="1.0" encoding="utf-8"?>
<!-- Generator: Adobe Illustrator 23.0.5, SVG Export Plug-In . SVG Version: 6.00 Build 0)  -->
<svg version="1.1" id="Capa_1" xmlns="http://www.w3.org/2000/svg" xmlns:xlink="http://www.w3.org/1999/xlink" x="0px" y="0px"
	 viewBox="0 0 96.65 100.94" style="enable-background:new 0 0 96.65 100.94;" xml:space="preserve">
<style type="text/css">
	.st0{fill:#FFFFFF;}
</style>
<g>
	<path class="st0" d="M90.95,67.29l-4.11-4.08c-0.66-0.65-1.73-0.65-2.38,0.01c-0.66,0.66-0.65,1.73,0.01,2.38l4.11,4.08
		c0.33,0.33,0.76,0.49,1.19,0.49c0.43,0,0.87-0.17,1.2-0.5C91.62,69.01,91.61,67.95,90.95,67.29"/>
	<path class="st0" d="M82.65,59.04c-0.66-0.66-1.73-0.66-2.38,0l0,0c-0.66,0.66-0.66,1.72,0,2.38c0.33,0.33,0.76,0.49,1.19,0.49
		c0.43,0,0.86-0.17,1.19-0.49C83.31,60.76,83.31,59.7,82.65,59.04"/>
	<path class="st0" d="M68.29,66.81l16.35-16.35c2.48-2.47,2.48-6.5,0-8.98c-0.87-0.87-1.94-1.44-3.06-1.69
		c0.38-0.83,0.59-1.74,0.59-2.68c0-1.7-0.66-3.29-1.86-4.49c-0.94-0.94-2.12-1.55-3.41-1.77c0.72-2.2,0.21-4.73-1.54-6.48
		c-0.96-0.96-2.16-1.55-3.41-1.76c0.21-0.64,0.32-1.31,0.32-1.99c0-1.7-0.66-3.29-1.86-4.49c-1.2-1.2-2.79-1.86-4.49-1.86
		c-1.08,0-2.11,0.27-3.03,0.77l-0.16-0.18c-2.11-2.27-5.1-3.57-8.2-3.57H41.28c-0.93,0-1.68,0.75-1.68,1.68v2.21
		c0,0.88,0.15,1.74,0.43,2.56c-0.76-0.32-1.59-0.48-2.44-0.48c-1.7,0-3.29,0.66-4.49,1.86c-1.75,1.75-2.26,4.28-1.54,6.48
		c-1.25,0.21-2.45,0.8-3.41,1.76c-1.2,1.2-1.86,2.79-1.86,4.49c0,0.69,0.11,1.36,0.32,1.99c-1.28,0.22-2.47,0.83-3.41,1.77
		c-1.93,1.93-2.36,4.81-1.27,7.16c-1.15,0.26-2.21,0.84-3.06,1.7c-2.48,2.48-2.48,6.5,0,8.98l3.36,3.36L5.69,73.36
		c-0.66,0.66-0.66,1.72,0,2.38c0.33,0.33,0.76,0.49,1.19,0.49c0.43,0,0.86-0.17,1.19-0.49l16.71-16.71
		c0.95,0.54,2.02,0.83,3.14,0.83c1.7,0,3.29-0.66,4.49-1.86c1.3-1.3,1.92-3.04,1.85-4.75c0.08,0,0.17,0.01,0.26,0.01
		c1.63,0,3.25-0.62,4.49-1.86c1.2-1.2,1.86-2.79,1.86-4.49c0-0.09,0-0.17-0.01-0.26c0.08,0,0.17,0.01,0.25,0.01
		c1.63,0,3.25-0.62,4.49-1.86c1.2-1.2,1.86-2.79,1.86-4.49c0-0.09,0-0.17-0.01-0.26c0.08,0,0.17,0.01,0.25,0.01
		c1.63,0,3.25-0.62,4.49-1.86c2.33-2.33,2.47-6.02,0.42-8.52l11.18-11.18c0.56-0.56,1.31-0.87,2.11-0.87c0.8,0,1.54,0.31,2.11,0.87
		c0.56,0.56,0.87,1.31,0.87,2.11s-0.31,1.54-0.87,2.11l-1.65,1.65l-5.98,5.98c-0.66,0.66-0.66,1.73,0,2.38
		c0.33,0.33,0.76,0.49,1.19,0.49c0.43,0,0.86-0.16,1.19-0.49l5.98-5.98c1.16-1.16,3.05-1.16,4.21,0s1.16,3.05,0,4.21l-1.65,1.65
		l-4.33,4.33c-0.66,0.66-0.66,1.72,0,2.38c0.33,0.33,0.76,0.49,1.19,0.49c0.43,0,0.86-0.16,1.19-0.49l4.34-4.34
		c0.56-0.56,1.31-0.87,2.11-0.87s1.54,0.31,2.11,0.87s0.87,1.31,0.87,2.11s-0.31,1.54-0.87,2.11l-2.26,2.26l-2.07,2.07
		c-0.66,0.66-0.66,1.72,0,2.38c0.33,0.33,0.76,0.49,1.19,0.49c0.43,0,0.86-0.16,1.19-0.49l2.07-2.07c1.16-1.16,3.05-1.16,4.21,0
		c1.16,1.16,1.16,3.05,0,4.21L65.9,64.43c-4.1,4.1-9.56,6.48-15.36,6.69c-0.43,0.02-0.83,0.19-1.13,0.49l-15.1,15.16
		c-0.66,0.66-0.66,1.73,0,2.38c0.33,0.33,0.76,0.49,1.19,0.49c0.43,0,0.86-0.17,1.19-0.5L47.8,78c2.82,1.81,6.14,2.67,9.51,2.45
		l8.69,8.69c0.33,0.33,0.76,0.49,1.19,0.49c0.43,0,0.86-0.17,1.19-0.49c0.66-0.66,0.66-1.72,0-2.38l-9.24-9.24
		c-0.35-0.35-0.84-0.53-1.33-0.49l-0.53,0.04c-2.47,0.2-4.9-0.34-7.03-1.53l1.08-1.09C57.74,74.06,63.74,71.36,68.29,66.81
		 M30.03,55.62c-0.56,0.56-1.31,0.87-2.11,0.87c-0.8,0-1.54-0.31-2.11-0.87l-4.55-4.55c-1.16-1.16-1.16-3.05,0-4.21
		c0.56-0.56,1.31-0.87,2.11-0.87c0.8,0,1.54,0.31,2.11,0.87l4.55,4.55C31.19,52.57,31.19,54.46,30.03,55.62 M36.62,49.02
		c-1.16,1.16-3.05,1.16-4.21,0l-4.55-4.55l-2.26-2.26c-1.16-1.16-1.16-3.05,0-4.21c0.56-0.56,1.31-0.87,2.11-0.87
		c0.8,0,1.54,0.31,2.11,0.87l6.82,6.82c0.56,0.56,0.87,1.31,0.87,2.11C37.5,47.71,37.19,48.46,36.62,49.02 M43.22,42.43
		c-1.16,1.16-3.05,1.16-4.21,0l-8.47-8.47c-0.56-0.56-0.87-1.31-0.87-2.11c0-0.8,0.31-1.54,0.87-2.11c0.58-0.58,1.34-0.87,2.11-0.87
		c0.76,0,1.53,0.29,2.1,0.87l3.86,3.86l4.61,4.61c0.56,0.56,0.87,1.31,0.87,2.11C44.09,41.12,43.78,41.86,43.22,42.43 M49.82,35.83
		c-1.16,1.16-3.05,1.16-4.21,0l-8.47-8.47l0,0l-1.65-1.65c-1.16-1.16-1.16-3.05,0-4.21c0.58-0.58,1.34-0.87,2.11-0.87
		s1.53,0.29,2.11,0.87l10.11,10.12c0.56,0.56,0.87,1.31,0.87,2.11C50.69,34.52,50.38,35.27,49.82,35.83 M50.26,27.29l-4.63-4.63
		c0.53,0.11,1.06,0.17,1.61,0.17h0.04l4.62-0.02c0.93,0,1.68-0.76,1.68-1.69c0-0.93-0.76-1.68-1.68-1.68h-0.01l-4.62,0.02h-0.02
		c-1.14,0-2.21-0.44-3.02-1.25c-0.81-0.81-1.26-1.89-1.26-3.03v-0.53h11.55c2.17,0,4.26,0.91,5.74,2.5l0.07,0.07L50.26,27.29z"/>
</g>
</svg>
