<?xml version="1.0" encoding="utf-8"?>
<!-- Generator: Adobe Illustrator 23.0.5, SVG Export Plug-In . SVG Version: 6.00 Build 0)  -->
<svg version="1.1" id="Capa_1" xmlns="http://www.w3.org/2000/svg" xmlns:xlink="http://www.w3.org/1999/xlink" x="0px" y="0px"
	 viewBox="0 0 96.65 100.94" style="enable-background:new 0 0 96.65 100.94;" xml:space="preserve">
<style type="text/css">
	.st0{fill:#FFFFFF;}
</style>
<g>
	<path class="st0" d="M48.32,5.74c-4.94,0-8.95,4.01-8.95,8.95c0,4.94,4.01,8.95,8.95,8.95c4.94-0.01,8.94-4.01,8.95-8.95
		C57.27,9.74,53.26,5.74,48.32,5.74 M48.32,20.65c-3.29,0-5.96-2.67-5.96-5.96c0-3.29,2.67-5.96,5.96-5.96
		c3.29,0,5.96,2.67,5.96,5.96C54.29,17.98,51.62,20.65,48.32,20.65"/>
	<path class="st0" d="M54.29,25.12h-0.35l-0.31,0.16c-3.34,1.66-7.26,1.66-10.59,0l-0.32-0.16h-0.35c-4.11,0-7.45,3.34-7.46,7.45
		v8.95c0,2.47,2,4.47,4.47,4.47h17.89c2.47,0,4.47-2,4.47-4.47v-8.95C61.74,28.46,58.4,25.13,54.29,25.12 M58.76,41.52
		c0,0.82-0.67,1.49-1.49,1.49H39.38c-0.82,0-1.49-0.67-1.49-1.49v-8.95c0-2.35,1.81-4.29,4.16-4.46c3.98,1.85,8.58,1.85,12.56,0
		c2.34,0.17,4.16,2.11,4.16,4.46V41.52z"/>
	<path class="st0" d="M79.63,54.94c-4.94,0-8.95,4.01-8.95,8.95c0,4.94,4.01,8.95,8.95,8.95c4.94,0,8.95-4.01,8.95-8.95
		C88.57,58.95,84.57,54.95,79.63,54.94 M79.63,69.85c-3.29,0-5.96-2.67-5.96-5.96c0-3.29,2.67-5.96,5.96-5.96
		c3.29,0,5.96,2.67,5.96,5.96C85.6,67.18,82.93,69.85,79.63,69.85"/>
	<path class="st0" d="M85.6,74.32h-0.35l-0.31,0.15c-3.34,1.66-7.26,1.66-10.59,0l-0.32-0.15h-0.35c-4.12,0-7.45,3.34-7.45,7.45
		v8.95c0,2.47,2,4.47,4.47,4.47h17.89c2.47,0,4.47-2,4.47-4.47v-8.95C93.05,77.66,89.71,74.33,85.6,74.32 M90.07,90.72
		c0,0.82-0.67,1.49-1.49,1.49H70.69c-0.82,0-1.49-0.67-1.49-1.49v-8.95c0-2.35,1.81-4.29,4.16-4.46c3.98,1.85,8.58,1.85,12.56,0
		c2.34,0.17,4.16,2.11,4.16,4.46V90.72z"/>
	<path class="st0" d="M17.01,54.94c-4.94,0-8.95,4.01-8.95,8.95c0,4.94,4.01,8.95,8.95,8.95c4.94,0,8.95-4.01,8.95-8.95
		C25.95,58.95,21.95,54.95,17.01,54.94 M17.01,69.85c-3.29,0-5.96-2.67-5.96-5.96c0-3.29,2.67-5.96,5.96-5.96
		c3.29,0,5.96,2.67,5.96,5.96C22.98,67.18,20.31,69.85,17.01,69.85"/>
	<path class="st0" d="M22.98,74.32h-0.35l-0.31,0.15c-3.34,1.66-7.26,1.66-10.59,0l-0.32-0.15h-0.35c-4.12,0-7.45,3.34-7.45,7.45
		v8.95c0,2.47,2,4.47,4.47,4.47h17.89c2.47,0,4.47-2,4.47-4.47v-8.95C30.43,77.66,27.09,74.33,22.98,74.32 M27.45,90.72
		c0,0.82-0.67,1.49-1.49,1.49H8.07c-0.82,0-1.49-0.67-1.49-1.49v-8.95c0-2.35,1.81-4.29,4.16-4.46c3.98,1.85,8.58,1.85,12.56,0
		c2.34,0.17,4.16,2.11,4.16,4.46V90.72z"/>
	<path class="st0" d="M63.12,81.46C63.12,81.46,63.11,81.45,63.12,81.46c-0.33-0.76-1.2-1.11-1.96-0.79
		c-6.73,2.82-14.21,3.34-21.27,1.46l1.4-0.41c0.79-0.23,1.24-1.06,1.01-1.85c-0.23-0.79-1.06-1.24-1.85-1.01l-5.96,1.75
		c-0.02,0-0.04,0.03-0.06,0.03c-0.14,0.05-0.27,0.12-0.38,0.21c-0.05,0.03-0.1,0.06-0.15,0.09c-0.16,0.14-0.28,0.31-0.37,0.51
		c-0.08,0.19-0.12,0.4-0.11,0.62c0.04,0.2,0.09,0.4,0.15,0.6c0.01,0.02,0,0.05,0.02,0.07l2.98,5.71c0.38,0.73,1.28,1.01,2.01,0.63
		c0.73-0.38,1.01-1.28,0.63-2.01l-1.21-2.32c8.02,2.41,16.62,1.94,24.33-1.32C63.08,83.09,63.44,82.22,63.12,81.46"/>
	<path class="st0" d="M88.14,44.94c-0.58-0.58-1.53-0.58-2.11,0l-2.11,2.11c-1.23-13.06-9.53-24.39-21.6-29.52
		c-0.76-0.32-1.63,0.03-1.96,0.79c-0.32,0.76,0.03,1.63,0.79,1.96c10.83,4.6,18.36,14.66,19.72,26.35l-1.68-1.68
		c-0.59-0.57-1.54-0.56-2.11,0.04c-0.56,0.58-0.56,1.49,0,2.07l4.47,4.47c0.58,0.58,1.53,0.58,2.11,0c0,0,0,0,0,0l4.47-4.47
		C88.73,46.47,88.73,45.52,88.14,44.94"/>
	<path class="st0" d="M36.35,18.65c-0.01-0.09-0.02-0.17-0.04-0.26c0-0.01-0.02-0.02-0.02-0.04s0-0.03,0-0.04
		c-0.04-0.07-0.09-0.14-0.14-0.21c-0.05-0.09-0.11-0.17-0.17-0.25c-0.09-0.08-0.19-0.15-0.29-0.2c-0.05-0.04-0.11-0.09-0.17-0.12
		l-5.96-2.72c-0.76-0.31-1.63,0.05-1.95,0.81c-0.3,0.72,0.01,1.55,0.71,1.9l3.09,1.41c-11.62,6.22-18.88,18.34-18.87,31.52
		c0,0.82,0.67,1.49,1.49,1.49c0.82,0,1.49-0.67,1.49-1.49c-0.01-11.61,6.13-22.36,16.14-28.24l-1.08,2.25
		c-0.36,0.74-0.04,1.63,0.7,1.99c0.2,0.1,0.42,0.15,0.65,0.15c0.57,0,1.09-0.33,1.34-0.84l2.98-6.22c0-0.02,0-0.03,0.01-0.05
		c0.04-0.1,0.07-0.21,0.08-0.32c0.03-0.08,0.04-0.16,0.06-0.25C36.39,18.84,36.38,18.74,36.35,18.65"/>
</g>
</svg>
