<?xml version="1.0" encoding="utf-8"?>
<!-- Generator: Adobe Illustrator 23.0.5, SVG Export Plug-In . SVG Version: 6.00 Build 0)  -->
<svg version="1.1" id="Capa_1" xmlns="http://www.w3.org/2000/svg" xmlns:xlink="http://www.w3.org/1999/xlink" x="0px" y="0px"
	 viewBox="0 0 64.94 67.7" style="enable-background:new 0 0 64.94 67.7;" xml:space="preserve">
<style type="text/css">
	.st0{fill-rule:evenodd;clip-rule:evenodd;fill:#FF5F00;}
	.st1{fill:none;stroke:#FFFFFF;stroke-width:0.714;stroke-miterlimit:10;}
</style>
<g>
	<path class="st0" d="M24.23,7.84l7.08-5.59c0.7-0.55,1.66-0.52,2.33,0.01l6.91,5.58h10.43c1.04,0,1.88,0.84,1.88,1.88v7.25
		l10.14,7.76c0.48,0.37,0.73,0.92,0.73,1.49l0,37.76c0,1.04-0.84,1.88-1.87,1.88H3.09c-1.04,0-1.88-0.84-1.88-1.88V26.22
		c0-0.65,0.33-1.23,0.84-1.57l10.04-7.69V9.72c0-1.03,0.84-1.88,1.88-1.88H24.23z M21.47,26.16c-1.04,0-1.88,0.84-1.88,1.88
		c0,1.04,0.84,1.88,1.88,1.88c1.04,0,1.88-0.84,1.88-1.88C23.34,27,22.5,26.16,21.47,26.16 M28.97,29.91h14.5
		c1.04,0,1.88-0.84,1.88-1.88c0-1.04-0.84-1.88-1.88-1.88h-14.5c-1.04,0-1.88,0.84-1.88,1.88C27.09,29.07,27.93,29.91,28.97,29.91
		 M21.47,18.66c-1.04,0-1.88,0.84-1.88,1.88s0.84,1.88,1.88,1.88c1.04,0,1.88-0.84,1.88-1.88S22.5,18.66,21.47,18.66 M28.97,22.41
		h14.5c1.04,0,1.88-0.84,1.88-1.88s-0.84-1.88-1.88-1.88h-14.5c-1.04,0-1.88,0.84-1.88,1.88S27.93,22.41,28.97,22.41 M5.83,26.48
		l6.26,5.54V21.68L5.83,26.48z M15.84,35.34l8.23,7.28l4.64-4.17c2.15-1.93,5.37-1.93,7.52,0l4.79,4.3l8.08-7.26v-23.9H15.84V35.34z
		 M21.27,45.14c-5.44-4.81-10.87-9.62-16.3-14.43v29.07L21.27,45.14z M52.85,32.12l6.27-5.63l-6.27-4.8V32.12z M59.97,30.75
		L43.82,45.27l16.16,14.51V30.75z M56.96,62.1L33.72,41.24c-0.71-0.64-1.79-0.64-2.51,0L7.98,62.1H56.96z M34.6,7.84l-2.14-1.73
		l-2.2,1.73H34.6z"/>
	<path class="st1" d="M24.23,7.84l7.08-5.59c0.7-0.55,1.66-0.52,2.33,0.01l6.91,5.58h10.43c1.04,0,1.88,0.84,1.88,1.88v7.25
		l10.14,7.76c0.48,0.37,0.73,0.92,0.73,1.49l0,37.76c0,1.04-0.84,1.88-1.87,1.88H3.09c-1.04,0-1.88-0.84-1.88-1.88V26.22
		c0-0.65,0.33-1.23,0.84-1.57l10.04-7.69V9.72c0-1.03,0.84-1.88,1.88-1.88H24.23z M21.47,26.16c-1.04,0-1.88,0.84-1.88,1.88
		c0,1.04,0.84,1.88,1.88,1.88c1.04,0,1.88-0.84,1.88-1.88C23.34,27,22.5,26.16,21.47,26.16z M28.97,29.91h14.5
		c1.04,0,1.88-0.84,1.88-1.88c0-1.04-0.84-1.88-1.88-1.88h-14.5c-1.04,0-1.88,0.84-1.88,1.88C27.09,29.07,27.93,29.91,28.97,29.91z
		 M21.47,18.66c-1.04,0-1.88,0.84-1.88,1.88s0.84,1.88,1.88,1.88c1.04,0,1.88-0.84,1.88-1.88S22.5,18.66,21.47,18.66z M28.97,22.41
		h14.5c1.04,0,1.88-0.84,1.88-1.88s-0.84-1.88-1.88-1.88h-14.5c-1.04,0-1.88,0.84-1.88,1.88S27.93,22.41,28.97,22.41z M5.83,26.48
		l6.26,5.54V21.68L5.83,26.48z M15.84,35.34l8.23,7.28l4.64-4.17c2.15-1.93,5.37-1.93,7.52,0l4.79,4.3l8.08-7.26v-23.9H15.84V35.34z
		 M21.27,45.14c-5.44-4.81-10.87-9.62-16.3-14.43v29.07L21.27,45.14z M52.85,32.12l6.27-5.63l-6.27-4.8V32.12z M59.97,30.75
		L43.82,45.27l16.16,14.51V30.75z M56.96,62.1L33.72,41.24c-0.71-0.64-1.79-0.64-2.51,0L7.98,62.1H56.96z M34.6,7.84l-2.14-1.73
		l-2.2,1.73H34.6z"/>
</g>
</svg>
