<?xml version="1.0" encoding="utf-8"?>
<!-- Generator: Adobe Illustrator 23.0.5, SVG Export Plug-In . SVG Version: 6.00 Build 0)  -->
<svg version="1.1" id="Capa_1" xmlns="http://www.w3.org/2000/svg" xmlns:xlink="http://www.w3.org/1999/xlink" x="0px" y="0px"
	 viewBox="0 0 96.65 100.94" style="enable-background:new 0 0 96.65 100.94;" xml:space="preserve">
<style type="text/css">
	.st0{fill:#FFFFFF;}
</style>
<g>
	<path class="st0" d="M36.45,24.95c0,10.6,8.62,19.22,19.21,19.22c10.59,0,19.21-8.62,19.21-19.22c0-10.59-8.62-19.21-19.21-19.21
		C45.07,5.74,36.45,14.36,36.45,24.95 M71.38,24.95c0,8.67-7.05,15.72-15.72,15.72s-15.72-7.05-15.72-15.72
		c0-8.67,7.05-15.72,15.72-15.72S71.38,16.29,71.38,24.95"/>
	<path class="st0" d="M23.73,94.68c0.68,0.68,1.78,0.69,2.47,0.01l8.47-8.34c1.44-1.44,1.88-3.57,1.24-5.42l1.82-1.76
		c0.98-0.95,2.27-1.47,3.64-1.47h23.22c4.12,0,8.01-1.58,10.97-4.46c0.12-0.12-0.92,1.11,15.84-18.92c2.49-2.94,2.12-7.36-0.83-9.85
		c-2.93-2.47-7.31-2.11-9.8,0.78L70.45,55.85c-1.3-1.6-3.29-2.6-5.43-2.6H45.54c-2.77-1.16-5.71-1.75-8.75-1.75
		c-8.41,0-15.76,3.89-19.7,11.17c-1.66-0.32-3.41,0.19-4.67,1.45l-8.31,8.33c-0.68,0.68-0.68,1.78,0,2.46L23.73,94.68z M36.8,55
		c2.68,0,5.26,0.54,7.69,1.6c0.22,0.1,0.46,0.15,0.7,0.15h19.84c1.89,0,3.49,1.54,3.49,3.49c0,1.93-1.57,3.49-3.49,3.49H50.77
		c-0.97,0-1.75,0.78-1.75,1.75c0,0.96,0.78,1.75,1.75,1.75h14.25c3.85,0,6.99-3.13,6.99-6.99c0-0.31-0.02-0.61-0.06-0.91
		c9.97-10.25,11.38-11.69,11.44-11.76c1.24-1.47,3.45-1.66,4.92-0.42c1.47,1.24,1.66,3.45,0.41,4.93L73.05,70.81
		c-2.29,2.2-5.29,3.41-8.47,3.41H41.36c-2.28,0-4.43,0.87-6.06,2.45l-1.48,1.43L20.13,64.41C23.33,58.41,29.33,55,36.8,55
		 M14.9,66.59c0.58-0.58,1.46-0.68,2.16-0.25c0.3,0.19-0.57-0.61,15.13,15.07c0.7,0.7,0.66,1.81,0.01,2.46l-7.22,7.11L7.82,73.69
		L14.9,66.59z"/>
	<path class="st0" d="M53.57,14.47v2.05c-2.03,0.72-3.49,2.66-3.49,4.94c0,2.89,2.35,5.24,5.24,5.24c0.96,0,1.75,0.78,1.75,1.75
		c0,0.96-0.78,1.75-1.75,1.75c-0.75,0-1.55-0.47-2.27-1.32c-0.62-0.74-1.72-0.83-2.46-0.21c-0.74,0.62-0.83,1.72-0.21,2.46
		c0.93,1.11,2.03,1.89,3.2,2.28v2.04c0,0.96,0.78,1.75,1.75,1.75c0.96,0,1.75-0.78,1.75-1.75v-2.05c2.03-0.72,3.49-2.66,3.49-4.94
		c0-2.89-2.35-5.24-5.24-5.24c-0.96,0-1.75-0.78-1.75-1.75s0.78-1.75,1.75-1.75c0.62,0,1.27,0.32,1.89,0.91
		c0.69,0.67,1.8,0.65,2.47-0.04c0.67-0.69,0.65-1.8-0.04-2.47c-0.89-0.86-1.77-1.34-2.57-1.61v-2.04c0-0.96-0.78-1.75-1.75-1.75
		C54.35,12.73,53.57,13.51,53.57,14.47"/>
</g>
</svg>
