<?xml version="1.0" encoding="utf-8"?>
<!-- Generator: Adobe Illustrator 23.0.5, SVG Export Plug-In . SVG Version: 6.00 Build 0)  -->
<svg version="1.1" id="Capa_1" xmlns="http://www.w3.org/2000/svg" xmlns:xlink="http://www.w3.org/1999/xlink" x="0px" y="0px"
	 viewBox="0 0 96.65 100.94" style="enable-background:new 0 0 96.65 100.94;" xml:space="preserve">
<style type="text/css">
	.st0{fill:#FFFFFF;}
</style>
<g>
	<path class="st0" d="M85.14,55.95c-2.08-4.85-5.2-9.9-9.27-15.01c-0.46-0.58-1.3-0.67-1.88-0.21c-0.58,0.46-0.67,1.3-0.21,1.88
		c3.92,4.92,6.91,9.76,8.9,14.4c2.41,5.61,3.35,10.95,2.8,15.85c-0.57,5.08-2.82,9.36-6.68,12.74c-3.15,2.76-7.38,4.94-12.57,6.49
		c-8.98,2.68-17.8,2.5-17.88,2.5c-0.02,0-0.04,0-0.07,0c-0.09,0-8.9,0.18-17.89-2.5c-5.19-1.55-9.42-3.73-12.57-6.49
		c-3.86-3.38-6.1-7.67-6.67-12.74c-0.88-7.84,2-16.6,8.57-26.05c4.97-7.14,11.01-13.12,14.86-16.6h27.48
		c1.73,1.56,3.95,3.67,6.3,6.17c0.51,0.54,1.35,0.56,1.89,0.06c0.54-0.51,0.56-1.35,0.05-1.89c-1.86-1.98-3.65-3.72-5.18-5.14
		c1.03-0.76,1.7-1.98,1.7-3.36c0-2.3-1.87-4.17-4.17-4.17h-0.38c1.5-2.2,3.46-5.23,4.9-8.07c1.99-3.92,2.58-6.53,1.84-8.24
		c-0.44-1.01-1.35-1.67-2.55-1.85c-1.79-0.26-4.14,0.45-7.13,1.36c-3.37,1.03-7.19,2.19-11.02,2.19c-3.83,0-7.65-1.16-11.02-2.19
		c-2.99-0.91-5.34-1.63-7.13-1.36c-1.2,0.18-2.11,0.83-2.55,1.85c-0.74,1.71-0.16,4.32,1.84,8.24c1.45,2.84,3.4,5.87,4.9,8.07h-0.38
		c-2.3,0-4.17,1.87-4.17,4.17c0,1.38,0.67,2.6,1.7,3.35c-9.25,8.63-25,26.13-23.01,43.76C9.67,83.46,17,90.9,29.7,94.67
		c9.19,2.73,17.92,2.61,18.62,2.59c0.08,0,0.26,0.01,0.54,0.01c2.16,0,9.94-0.18,18.08-2.6c12.71-3.77,20.04-11.21,21.2-21.51
		C88.75,67.78,87.74,61.99,85.14,55.95 M30.08,6.63c0.04-0.08,0.09-0.21,0.49-0.27c1.19-0.18,3.51,0.53,5.96,1.28
		c3.37,1.03,7.57,2.3,11.8,2.3c4.22,0,8.42-1.28,11.79-2.3c2.45-0.75,4.77-1.45,5.96-1.28c0.4,0.06,0.45,0.18,0.49,0.27
		c0.12,0.27,0.93,2.99-6.85,14.25c-0.22,0.32-0.41,0.65-0.56,0.99H37.48c-0.15-0.34-0.34-0.68-0.56-0.99
		C29.14,9.63,29.96,6.91,30.08,6.63 M33.98,24.55h28.68c0.82,0,1.49,0.67,1.49,1.5c0,0.82-0.67,1.49-1.49,1.49H33.98
		c-0.82,0-1.5-0.67-1.5-1.49C32.49,25.22,33.16,24.55,33.98,24.55"/>
	<path class="st0" d="M63.68,46.43c-4.1-4.1-9.56-6.36-15.36-6.36c-5.8,0-11.26,2.26-15.36,6.36c-3,3-5.04,6.77-5.9,10.9
		c-0.15,0.72,0.31,1.43,1.03,1.58c0.72,0.15,1.43-0.31,1.58-1.03c0.76-3.62,2.55-6.93,5.18-9.56c7.43-7.43,19.51-7.43,26.94,0
		c7.43,7.43,7.43,19.51,0,26.94c-7.43,7.43-19.51,7.43-26.94,0c-2.57-2.57-4.34-5.78-5.12-9.31c-0.16-0.72-0.87-1.17-1.59-1.01
		c-0.72,0.16-1.17,0.87-1.01,1.59c0.89,4.02,2.91,7.69,5.84,10.62c4.23,4.23,9.8,6.35,15.36,6.35c5.56,0,11.12-2.12,15.36-6.35
		C72.15,68.68,72.15,54.9,63.68,46.43"/>
	<path class="st0" d="M49.75,60.71l-0.12-0.04v-7.43l0.2,0.01c1.54,0.11,2.49,0.58,3.18,0.93c0.41,0.2,0.73,0.36,1.01,0.36
		c0.89,0,1.36-1.18,1.36-1.81c0-0.86-1.01-1.4-1.86-1.71c-1-0.36-2.39-0.59-3.71-0.63l-0.18-0.01v-1.12c0-0.31-0.44-0.62-0.87-0.62
		c-0.51,0-0.83,0.32-0.83,0.62v1.18l-0.16,0.02c-1.95,0.21-6.49,1.23-6.49,6.33c0,4.37,3.47,5.6,6.53,6.69l0.12,0.04v8.56l-0.2-0.01
		c-2.3-0.18-3.52-1.23-4.42-1.99c-0.49-0.42-0.87-0.74-1.24-0.74c-0.74,0-1.43,1.02-1.43,1.81c0,1.56,2.77,3.88,7.1,3.95l0.18,0
		v1.27c0,0.3,0.32,0.62,0.83,0.62c0.43,0,0.87-0.31,0.87-0.62v-1.35l0.16-0.02c3.95-0.55,6.21-3.11,6.21-7.03
		C56,63.39,52.91,61.87,49.75,60.71 M48.14,60.14l-0.25-0.09c-1.9-0.72-3.48-1.49-3.48-3.6c0-1.76,1.22-2.84,3.52-3.12l0.21-0.03
		V60.14z M49.63,71.99l-0.22,0.04v-7.89l0.25,0.11c1.66,0.71,3.19,1.7,3.19,4.09C52.87,70.31,51.72,71.61,49.63,71.99"/>
</g>
</svg>
