<?xml version="1.0" encoding="utf-8"?>
<!-- Generator: Adobe Illustrator 23.0.5, SVG Export Plug-In . SVG Version: 6.00 Build 0)  -->
<svg version="1.1" id="Capa_1" xmlns="http://www.w3.org/2000/svg" xmlns:xlink="http://www.w3.org/1999/xlink" x="0px" y="0px"
	 viewBox="0 0 82.94 55.7" style="enable-background:new 0 0 82.94 55.7;" xml:space="preserve">
<style type="text/css">
	.st0{fill:#FFFFFF;}
</style>
<g>
	<path class="st0" d="M61.28,0.84H21.66c-0.5,0-0.9,0.4-0.9,0.9v52.23c0,0.5,0.4,0.9,0.9,0.9h34.22c0.24,0,0.47-0.09,0.64-0.26
		l5.4-5.4c0.17-0.17,0.26-0.4,0.26-0.64V1.74C62.18,1.24,61.78,0.84,61.28,0.84 M22.56,2.64h37.82v45.03h-4.5
		c-0.5,0-0.9,0.4-0.9,0.9v4.5H22.56V2.64z M59.11,49.46l-2.33,2.33v-2.33H59.11z"/>
	<rect x="25.26" y="24.25" class="st0" width="5.4" height="1.8"/>
	<rect x="39.67" y="24.25" class="st0" width="18.01" height="1.8"/>
	<rect x="36.07" y="24.25" class="st0" width="1.8" height="1.8"/>
	<rect x="25.26" y="20.65" class="st0" width="5.4" height="1.8"/>
	<rect x="36.07" y="20.65" class="st0" width="18.01" height="1.8"/>
	<rect x="55.88" y="20.65" class="st0" width="1.8" height="1.8"/>
	<rect x="25.26" y="31.45" class="st0" width="5.4" height="1.8"/>
	<rect x="39.67" y="31.45" class="st0" width="18.01" height="1.8"/>
	<rect x="36.07" y="31.45" class="st0" width="1.8" height="1.8"/>
	<rect x="25.26" y="27.85" class="st0" width="5.4" height="1.8"/>
	<rect x="36.07" y="27.85" class="st0" width="18.01" height="1.8"/>
	<rect x="55.88" y="27.85" class="st0" width="1.8" height="1.8"/>
	<rect x="25.26" y="38.66" class="st0" width="5.4" height="1.8"/>
	<rect x="39.67" y="38.66" class="st0" width="18.01" height="1.8"/>
	<rect x="36.07" y="38.66" class="st0" width="1.8" height="1.8"/>
	<rect x="25.26" y="35.06" class="st0" width="5.4" height="1.8"/>
	<rect x="36.07" y="35.06" class="st0" width="18.01" height="1.8"/>
	<rect x="55.88" y="35.06" class="st0" width="1.8" height="1.8"/>
	<rect x="24.36" y="15.25" class="st0" width="34.22" height="1.8"/>
	<path class="st0" d="M28.86,13.44c1.82,0,3.46-1.1,4.16-2.78c0.7-1.68,0.31-3.62-0.97-4.91c-1.29-1.29-3.22-1.67-4.91-0.98
		c-1.68,0.7-2.78,2.34-2.78,4.16C24.36,11.43,26.38,13.44,28.86,13.44 M28.86,6.24c1.09,0,2.08,0.66,2.5,1.67
		c0.42,1.01,0.19,2.17-0.59,2.94c-0.77,0.77-1.93,1-2.94,0.59c-1.01-0.42-1.67-1.4-1.67-2.5C26.16,7.45,27.37,6.24,28.86,6.24"/>
	<rect x="35.17" y="4.44" class="st0" width="9.01" height="1.8"/>
	<rect x="35.17" y="8.04" class="st0" width="5.4" height="1.8"/>
	<rect x="45.97" y="4.44" class="st0" width="12.61" height="1.8"/>
	<rect x="42.37" y="8.04" class="st0" width="16.21" height="1.8"/>
	<rect x="35.17" y="11.64" class="st0" width="12.61" height="1.8"/>
	<rect x="49.57" y="11.64" class="st0" width="1.8" height="1.8"/>
	<path class="st0" d="M24.36,51.27h23.41v-7.2H24.36V51.27z M45.97,49.46H26.16v-3.6h19.81V49.46z"/>
</g>
</svg>
