<?xml version="1.0" encoding="utf-8"?>
<!-- Generator: Adobe Illustrator 23.0.5, SVG Export Plug-In . SVG Version: 6.00 Build 0)  -->
<svg version="1.1" id="Capa_1" xmlns="http://www.w3.org/2000/svg" xmlns:xlink="http://www.w3.org/1999/xlink" x="0px" y="0px"
	 viewBox="0 0 78.42 78.42" style="enable-background:new 0 0 78.42 78.42;" xml:space="preserve">
<style type="text/css">
	.st0{fill:#FFFFFF;}
</style>
<g>
	<path class="st0" d="M67.21,1.02H11.2c-0.7,0-1.27,0.57-1.27,1.27v73.83c0,0.7,0.57,1.27,1.27,1.27h48.37
		c0.34,0,0.66-0.13,0.9-0.37l7.64-7.64c0.24-0.24,0.37-0.56,0.37-0.9V2.29C68.49,1.59,67.92,1.02,67.21,1.02 M12.48,3.56h53.46
		v63.65h-6.36c-0.7,0-1.27,0.57-1.27,1.27v6.37H12.48V3.56z M64.14,69.76l-3.29,3.29v-3.29H64.14z"/>
	<rect x="16.29" y="34.12" class="st0" width="7.64" height="2.55"/>
	<rect x="36.66" y="34.12" class="st0" width="25.46" height="2.55"/>
	<rect x="31.57" y="34.12" class="st0" width="2.55" height="2.55"/>
	<rect x="16.29" y="29.02" class="st0" width="7.64" height="2.55"/>
	<rect x="31.57" y="29.02" class="st0" width="25.46" height="2.55"/>
	<rect x="59.58" y="29.02" class="st0" width="2.55" height="2.55"/>
	<rect x="16.29" y="44.3" class="st0" width="7.64" height="2.55"/>
	<rect x="36.66" y="44.3" class="st0" width="25.46" height="2.55"/>
	<rect x="31.57" y="44.3" class="st0" width="2.55" height="2.55"/>
	<rect x="16.29" y="39.21" class="st0" width="7.64" height="2.55"/>
	<rect x="31.57" y="39.21" class="st0" width="25.46" height="2.55"/>
	<rect x="59.58" y="39.21" class="st0" width="2.55" height="2.55"/>
	<rect x="16.29" y="54.48" class="st0" width="7.64" height="2.55"/>
	<rect x="36.66" y="54.48" class="st0" width="25.46" height="2.55"/>
	<rect x="31.57" y="54.48" class="st0" width="2.55" height="2.55"/>
	<rect x="16.29" y="49.39" class="st0" width="7.64" height="2.55"/>
	<rect x="31.57" y="49.39" class="st0" width="25.46" height="2.55"/>
	<rect x="59.58" y="49.39" class="st0" width="2.55" height="2.55"/>
	<rect x="15.02" y="21.39" class="st0" width="48.37" height="2.55"/>
	<path class="st0" d="M21.39,18.84c2.57,0,4.89-1.55,5.88-3.93c0.99-2.38,0.44-5.12-1.38-6.94c-1.82-1.82-4.56-2.36-6.94-1.38
		c-2.38,0.99-3.93,3.31-3.93,5.88C15.03,15.99,17.87,18.84,21.39,18.84 M21.39,8.66c1.54,0,2.94,0.93,3.53,2.36
		c0.59,1.43,0.26,3.07-0.83,4.16c-1.09,1.09-2.73,1.42-4.16,0.83c-1.43-0.59-2.36-1.98-2.36-3.53C17.57,10.37,19.28,8.66,21.39,8.66
		"/>
	<rect x="30.3" y="6.11" class="st0" width="12.73" height="2.55"/>
	<rect x="30.3" y="11.2" class="st0" width="7.64" height="2.55"/>
	<rect x="45.57" y="6.11" class="st0" width="17.82" height="2.55"/>
	<rect x="40.48" y="11.2" class="st0" width="22.91" height="2.55"/>
	<rect x="30.3" y="16.29" class="st0" width="17.82" height="2.55"/>
	<rect x="50.66" y="16.29" class="st0" width="2.55" height="2.55"/>
	<path class="st0" d="M15.02,72.3h33.1V62.12h-33.1V72.3z M45.57,69.76H17.57v-5.09h28.01V69.76z"/>
</g>
</svg>
