<?xml version="1.0" encoding="utf-8"?>
<!-- Generator: Adobe Illustrator 23.0.5, SVG Export Plug-In . SVG Version: 6.00 Build 0)  -->
<svg version="1.1" id="Capa_1" xmlns="http://www.w3.org/2000/svg" xmlns:xlink="http://www.w3.org/1999/xlink" x="0px" y="0px"
	 viewBox="0 0 67.94 67.7" style="enable-background:new 0 0 67.94 67.7;" xml:space="preserve">
<style type="text/css">
	.st0{fill:#FFFFFF;}
</style>
<g>
	<path class="st0" d="M63.63,26.66c-0.01-0.06-0.03-0.11-0.06-0.17c-0.03-0.05-0.06-0.1-0.1-0.15c-0.04-0.06-0.08-0.11-0.13-0.15
		c-0.02-0.01-0.02-0.03-0.04-0.05l-9.53-7.4v-7.67c0-1.64-1.33-2.97-2.97-2.97H40.07l-4.3-3.34c-1.06-0.83-2.55-0.83-3.61,0
		l-4.3,3.34H17.13c-1.64,0-2.97,1.33-2.97,2.97v7.67l-9.52,7.4c-0.02,0.01-0.03,0.03-0.04,0.05c-0.05,0.05-0.09,0.1-0.13,0.15
		c-0.04,0.05-0.07,0.1-0.1,0.15c-0.02,0.06-0.04,0.11-0.06,0.17c-0.02,0.06-0.03,0.13-0.04,0.2c0,0.02-0.01,0.04-0.01,0.06v33.68
		c0,0.63,0.21,1.24,0.58,1.75c0.01,0.01,0.01,0.02,0.01,0.03c0.01,0.01,0.02,0.02,0.03,0.03c0.56,0.73,1.42,1.16,2.34,1.17h53.49
		c0.92,0,1.79-0.44,2.35-1.17c0.01-0.01,0.02-0.01,0.03-0.02c0.01-0.01,0.01-0.02,0.01-0.03c0.38-0.51,0.58-1.12,0.58-1.75V26.92
		c0-0.02-0.01-0.04-0.01-0.06C63.66,26.79,63.65,26.72,63.63,26.66 M33.37,6.32c0.35-0.28,0.84-0.28,1.18,0l2.29,1.77h-5.74
		L33.37,6.32z M15.15,29.89c0.55,0,0.99-0.44,0.99-0.99V11.07c0-0.55,0.44-0.99,0.99-0.99h33.68c0.55,0,0.99,0.44,0.99,0.99V28.9
		c0,0.55,0.44,0.99,0.99,0.99c0.55,0,0.99-0.44,0.99-0.99v-7.65l6.97,5.41L44.23,39.49c-0.29,0.22-0.43,0.57-0.38,0.92
		c0.05,0.35,0.28,0.66,0.61,0.79c0.33,0.13,0.71,0.08,0.99-0.14L61.7,28.43v31.62L35.77,39.9c-1.06-0.83-2.55-0.83-3.61,0
		L6.23,60.04V28.43l16.23,12.6c0.43,0.34,1.05,0.26,1.39-0.17c0.34-0.43,0.26-1.06-0.18-1.39L7.19,26.66l6.97-5.41v7.65
		C14.16,29.44,14.6,29.89,15.15,29.89 M60.46,61.58H7.47l25.9-20.12c0.35-0.27,0.84-0.27,1.18,0L60.46,61.58z"/>
	<path class="st0" d="M33.97,35.83c0.55,0,0.99-0.44,0.99-0.99s-0.44-0.99-0.99-0.99c-5.47,0-9.91-4.43-9.91-9.91
		c0-5.47,4.43-9.91,9.91-9.91c5.47,0,9.9,4.44,9.9,9.91v3.96c0,1.09-0.89,1.98-1.98,1.98c-1.09,0-1.98-0.89-1.98-1.98v-3.96
		c0-0.55-0.44-0.99-0.99-0.99c-0.55,0-0.99,0.44-0.99,0.99c0,2.19-1.77,3.96-3.96,3.96c-2.19,0-3.96-1.77-3.96-3.96
		c0-2.19,1.77-3.96,3.96-3.96c0.55,0,0.99-0.44,0.99-0.99c0-0.55-0.44-0.99-0.99-0.99c-2.66-0.01-5,1.76-5.73,4.31
		c-0.73,2.56,0.33,5.29,2.59,6.69c2.26,1.4,5.18,1.12,7.14-0.68c0.22,2.09,2.04,3.65,4.14,3.54c2.1-0.11,3.75-1.85,3.74-3.96v-3.96
		c0-6.56-5.32-11.89-11.89-11.89c-6.56,0-11.89,5.32-11.89,11.89C22.08,30.51,27.4,35.83,33.97,35.83"/>
</g>
</svg>
