<?xml version="1.0" encoding="utf-8"?>
<!-- Generator: Adobe Illustrator 23.0.5, SVG Export Plug-In . SVG Version: 6.00 Build 0)  -->
<svg version="1.1" id="Capa_1" xmlns="http://www.w3.org/2000/svg" xmlns:xlink="http://www.w3.org/1999/xlink" x="0px" y="0px"
	 viewBox="0 0 96.42 82.42" style="enable-background:new 0 0 96.42 82.42;" xml:space="preserve">
<style type="text/css">
	.st0{fill:#FFFFFF;}
	.st1{fill:none;stroke:#DE5F16;stroke-miterlimit:10;}
</style>
<path class="st0" d="M30.2,38.37H19.95c-0.04,0-0.08,0-0.12,0H9.59c-0.04,0-0.08,0-0.12,0H5.59c-1.26,0-2.28-1.02-2.28-2.28
	c0-1.26,1.02-2.28,2.28-2.28h1.67v-11.9c0-1.26,1.02-2.28,2.28-2.28c1.26,0,2.28,1.02,2.28,2.28v11.9h5.8V3.59
	c0-1.26,1.02-2.28,2.28-2.28c1.26,0,2.28,1.02,2.28,2.28v30.22h5.8V15.6c0-1.26,1.02-2.28,2.28-2.28c1.26,0,2.28,1.02,2.28,2.28
	v18.2h1.67c1.26,0,2.28,1.02,2.28,2.28c0,1.26-1.02,2.28-2.28,2.28h-3.89c-0.02,0-0.04,0-0.06,0C30.24,38.37,30.22,38.37,30.2,38.37
	 M14.78,62.8H9.59c-1.26,0-2.28,1.02-2.28,2.28c0,1.26,1.02,2.28,2.28,2.28h5.19c1.26,0,2.28-1.02,2.28-2.28
	C17.06,63.82,16.04,62.8,14.78,62.8 M34.62,51.53c0,1.26,1.02,2.28,2.28,2.28h2.56c1.26,0,2.28-1.02,2.28-2.28s-1.02-2.28-2.28-2.28
	H36.9C35.64,49.25,34.62,50.28,34.62,51.53 M14.78,54.62H3.17c-1.26,0-2.28,1.02-2.28,2.28c0,1.26,1.02,2.28,2.28,2.28h11.61
	c1.26,0,2.28-1.02,2.28-2.28C17.06,55.64,16.04,54.62,14.78,54.62 M80.19,68.08L80.19,68.08c-1.26,0-2.28,1.02-2.28,2.28
	c0,1.26,1.02,2.28,2.28,2.28c1.26,0,2.28-1.02,2.28-2.28C82.47,69.1,81.45,68.08,80.19,68.08 M95.51,61.53l-0.01,1.54
	c0,0.91-0.01,1.94-0.01,3.2c0,2.73-1.96,5.08-4.72,5.98c-0.9,5.03-5.3,8.86-10.59,8.86c-5.93,0-10.75-4.82-10.75-10.75
	c0-5.93,4.82-10.75,10.75-10.75c4.85,0,8.96,3.23,10.3,7.65c0.29-0.29,0.46-0.63,0.46-0.98c0-1.26,0.01-2.31,0.01-3.22l0.01-1.54
	c0.01-1.86,0.02-4.4-0.01-5.58c-0.02-0.83-0.04-1.52-0.1-2.11H55.79c-0.82,0-2.73,0-8.6-5.79c-1.79-1.76-5.34-5.52-5.99-7.1
	c-0.48-1.16,0.07-2.5,1.24-2.98c1.15-0.47,2.45,0.06,2.95,1.19c0.31,0.56,2.16,2.83,4.85,5.5c3.38,3.37,5.18,4.46,5.67,4.63h32.38
	c-0.73-0.7-1.67-1.54-2.88-2.61c-0.63-0.56-1.32-1.17-2.07-1.84c-0.55-0.49-1.1-1.02-1.63-1.52c-0.78-0.74-1.58-1.51-2.42-2.21
	c-0.74-0.62-1.43-1.2-2.1-1.76c-8.46-7.12-10.73-9.04-17.86-9.04h-19.1c-1.26,0-2.28-1.02-2.28-2.28c0-1.26,1.02-2.28,2.28-2.28
	h19.1c8.8,0,12.31,2.96,20.8,10.11c0.66,0.56,1.36,1.14,2.09,1.76c0.95,0.8,1.81,1.62,2.64,2.41c0.53,0.5,1.03,0.98,1.53,1.43
	c0.75,0.67,1.43,1.27,2.05,1.83c5.46,4.84,6.93,6.14,7.08,12.58C95.54,57.06,95.52,59.54,95.51,61.53 M86.38,70.33
	c-0.01-3.4-2.79-6.17-6.19-6.17c-3.41,0-6.19,2.78-6.19,6.19c0,3.42,2.78,6.19,6.19,6.19c3.41,0,6.19-2.77,6.19-6.19V70.33z
	 M38.5,68.08L38.5,68.08c-1.26,0-2.28,1.02-2.28,2.28c0,1.26,1.02,2.28,2.28,2.28s2.28-1.02,2.28-2.28
	C40.78,69.1,39.76,68.08,38.5,68.08 M64.44,70.36c0,1.26-1.02,2.28-2.28,2.28H49c-1.05,4.84-5.36,8.47-10.51,8.47
	c-5.28,0-9.68-3.82-10.58-8.85c-1.83-0.58-3.33-1.8-4.14-3.42c-0.41-0.81-0.61-1.68-0.61-2.57V45.04c0-1.26,1.02-2.28,2.28-2.28
	c1.26,0,2.28,1.02,2.28,2.28v21.23c0,0.18,0.04,0.36,0.13,0.54c0.08,0.16,0.19,0.31,0.34,0.46c1.33-4.43,5.45-7.67,10.3-7.67
	c5.15,0,9.46,3.64,10.51,8.47h13.16C63.42,68.08,64.44,69.1,64.44,70.36 M44.69,70.36c0-3.41-2.78-6.19-6.19-6.19
	c-3.39,0-6.16,2.74-6.19,6.13c0,0.04,0,0.08,0,0.12c0.03,3.39,2.8,6.14,6.19,6.14C41.91,76.55,44.69,73.77,44.69,70.36"/>
<path class="st1" d="M30.2,38.37H19.95c-0.04,0-0.08,0-0.12,0H9.59c-0.04,0-0.08,0-0.12,0H5.59c-1.26,0-2.28-1.02-2.28-2.28
	c0-1.26,1.02-2.28,2.28-2.28h1.67v-11.9c0-1.26,1.02-2.28,2.28-2.28c1.26,0,2.28,1.02,2.28,2.28v11.9h5.8V3.59
	c0-1.26,1.02-2.28,2.28-2.28c1.26,0,2.28,1.02,2.28,2.28v30.22h5.8V15.6c0-1.26,1.02-2.28,2.28-2.28c1.26,0,2.28,1.02,2.28,2.28
	v18.2h1.67c1.26,0,2.28,1.02,2.28,2.28c0,1.26-1.02,2.28-2.28,2.28h-3.89c-0.02,0-0.04,0-0.06,0C30.24,38.37,30.22,38.37,30.2,38.37
	z M14.78,62.8H9.59c-1.26,0-2.28,1.02-2.28,2.28c0,1.26,1.02,2.28,2.28,2.28h5.19c1.26,0,2.28-1.02,2.28-2.28
	C17.06,63.82,16.04,62.8,14.78,62.8z M34.62,51.53c0,1.26,1.02,2.28,2.28,2.28h2.56c1.26,0,2.28-1.02,2.28-2.28
	s-1.02-2.28-2.28-2.28H36.9C35.64,49.25,34.62,50.28,34.62,51.53z M14.78,54.62H3.17c-1.26,0-2.28,1.02-2.28,2.28
	c0,1.26,1.02,2.28,2.28,2.28h11.61c1.26,0,2.28-1.02,2.28-2.28C17.06,55.64,16.04,54.62,14.78,54.62z M80.19,68.08L80.19,68.08
	c-1.26,0-2.28,1.02-2.28,2.28c0,1.26,1.02,2.28,2.28,2.28c1.26,0,2.28-1.02,2.28-2.28C82.47,69.1,81.45,68.08,80.19,68.08z
	 M95.51,61.53l-0.01,1.54c0,0.91-0.01,1.94-0.01,3.2c0,2.73-1.96,5.08-4.72,5.98c-0.9,5.03-5.3,8.86-10.59,8.86
	c-5.93,0-10.75-4.82-10.75-10.75c0-5.93,4.82-10.75,10.75-10.75c4.85,0,8.96,3.23,10.3,7.65c0.29-0.29,0.46-0.63,0.46-0.98
	c0-1.26,0.01-2.31,0.01-3.22l0.01-1.54c0.01-1.86,0.02-4.4-0.01-5.58c-0.02-0.83-0.04-1.52-0.1-2.11H55.79c-0.82,0-2.73,0-8.6-5.79
	c-1.79-1.76-5.34-5.52-5.99-7.1c-0.48-1.16,0.07-2.5,1.24-2.98c1.15-0.47,2.45,0.06,2.95,1.19c0.31,0.56,2.16,2.83,4.85,5.5
	c3.38,3.37,5.18,4.46,5.67,4.63h32.38c-0.73-0.7-1.67-1.54-2.88-2.61c-0.63-0.56-1.32-1.17-2.07-1.84c-0.55-0.49-1.1-1.02-1.63-1.52
	c-0.78-0.74-1.58-1.51-2.42-2.21c-0.74-0.62-1.43-1.2-2.1-1.76c-8.46-7.12-10.73-9.04-17.86-9.04h-19.1c-1.26,0-2.28-1.02-2.28-2.28
	c0-1.26,1.02-2.28,2.28-2.28h19.1c8.8,0,12.31,2.96,20.8,10.11c0.66,0.56,1.36,1.14,2.09,1.76c0.95,0.8,1.81,1.62,2.64,2.41
	c0.53,0.5,1.03,0.98,1.53,1.43c0.75,0.67,1.43,1.27,2.05,1.83c5.46,4.84,6.93,6.14,7.08,12.58C95.54,57.06,95.52,59.54,95.51,61.53z
	 M86.38,70.33c-0.01-3.4-2.79-6.17-6.19-6.17c-3.41,0-6.19,2.78-6.19,6.19c0,3.42,2.78,6.19,6.19,6.19c3.41,0,6.19-2.77,6.19-6.19
	V70.33z M38.5,68.08L38.5,68.08c-1.26,0-2.28,1.02-2.28,2.28c0,1.26,1.02,2.28,2.28,2.28s2.28-1.02,2.28-2.28
	C40.78,69.1,39.76,68.08,38.5,68.08z M64.44,70.36c0,1.26-1.02,2.28-2.28,2.28H49c-1.05,4.84-5.36,8.47-10.51,8.47
	c-5.28,0-9.68-3.82-10.58-8.85c-1.83-0.58-3.33-1.8-4.14-3.42c-0.41-0.81-0.61-1.68-0.61-2.57V45.04c0-1.26,1.02-2.28,2.28-2.28
	c1.26,0,2.28,1.02,2.28,2.28v21.23c0,0.18,0.04,0.36,0.13,0.54c0.08,0.16,0.19,0.31,0.34,0.46c1.33-4.43,5.45-7.67,10.3-7.67
	c5.15,0,9.46,3.64,10.51,8.47h13.16C63.42,68.08,64.44,69.1,64.44,70.36z M44.69,70.36c0-3.41-2.78-6.19-6.19-6.19
	c-3.39,0-6.16,2.74-6.19,6.13c0,0.04,0,0.08,0,0.12c0.03,3.39,2.8,6.14,6.19,6.14C41.91,76.55,44.69,73.77,44.69,70.36z"/>
</svg>
