<?xml version="1.0" encoding="utf-8"?>
<!-- Generator: Adobe Illustrator 23.0.5, SVG Export Plug-In . SVG Version: 6.00 Build 0)  -->
<svg version="1.1" id="Capa_1" xmlns="http://www.w3.org/2000/svg" xmlns:xlink="http://www.w3.org/1999/xlink" x="0px" y="0px"
	 viewBox="0 0 69.17 69.17" style="enable-background:new 0 0 69.17 69.17;" xml:space="preserve">
<style type="text/css">
	.st0{fill:#FFFFFF;}
</style>
<g>
	<path class="st0" d="M53.73,3.35h-2.02H41.64h-2.02H29.55h-2.01H17.46h-2.02H3.35v11.08v1.01v2.02c0,1.67,1.36,3.02,3.02,3.02h3.71
		l15.65,6.12l-8.65,3.53l0.02,0.04c-0.81-0.4-1.71-0.62-2.66-0.62c-3.33,0-6.05,2.71-6.05,6.04s2.71,6.05,6.05,6.05
		c1.21,0,2.33-0.36,3.27-0.97l8.55,3.49l-16.05,6.55H7.97l-4.62,4.62v5.45h4.12c0.48,2.85,2.96,5.04,5.95,5.04
		c2.99,0,5.47-2.18,5.96-5.04h30.41c0.48,2.85,2.96,5.04,5.95,5.04s5.47-2.18,5.95-5.04h4.12v-5.45l-4.62-4.62h-1.23l-16.05-6.55
		l8.55-3.49c0.94,0.61,2.06,0.97,3.27,0.97c3.33,0,6.05-2.71,6.05-6.05s-2.71-6.04-6.05-6.04c-0.95,0-1.86,0.23-2.66,0.62l0.02-0.04
		l-8.65-3.53l15.65-6.12h2.7c1.67,0,3.02-1.36,3.02-3.02v-2.02v-1.01V3.35H53.73z M41.64,5.37h10.07v8.06H41.64V5.37z M29.55,5.37
		h10.07v8.06H29.55V5.37z M17.46,5.37h10.07v8.06H17.46V5.37z M14.44,39.62c-2.22,0-4.03-1.81-4.03-4.03c0-2.22,1.81-4.03,4.03-4.03
		c2.22,0,4.03,1.81,4.03,4.03C18.47,37.82,16.66,39.62,14.44,39.62 M28.45,27.67l3.87,1.52l-12.09,4.73
		c-0.26-0.89-0.71-1.69-1.31-2.36L28.45,27.67z M35.09,30.27l12.86,5.03l-12.86,5.25L22.23,35.3L35.09,30.27z M28.92,45.25l3.5,1.43
		l-9.87,4.03h-7.01L28.92,45.25z M35.09,47.77l7.21,2.94H27.88L35.09,47.77z M13.43,63.8c-2.22,0-4.03-1.81-4.03-4.03
		s1.81-4.03,4.03-4.03c2.22,0,4.03,1.81,4.03,4.03S15.65,63.8,13.43,63.8 M55.74,63.8c-2.22,0-4.03-1.81-4.03-4.03
		s1.81-4.03,4.03-4.03s4.03,1.81,4.03,4.03S57.97,63.8,55.74,63.8 M60.36,52.72l3.44,3.44v2.61H61.7c-0.48-2.85-2.96-5.04-5.95-5.04
		c-1.23,0-2.38,0.37-3.33,1.01h-4.73v2.02h2.83c-0.36,0.61-0.6,1.29-0.73,2.02H19.38c-0.12-0.72-0.37-1.4-0.73-2.02h27.01v-2.02
		H16.76c-0.96-0.63-2.1-1.01-3.34-1.01c-2.99,0-5.47,2.18-5.95,5.04H5.37v-2.61l3.44-3.44H60.36z M54.64,50.71h-7.01L19.31,39.15
		c0.52-0.71,0.89-1.53,1.06-2.43L54.64,50.71z M41.26,43.07l-3.51-1.43l12.05-4.92c0.17,0.9,0.54,1.72,1.06,2.43L41.26,43.07z
		 M55.74,31.56c2.22,0,4.03,1.81,4.03,4.03c0,2.22-1.81,4.03-4.03,4.03s-4.03-1.81-4.03-4.03C51.71,33.37,53.52,31.56,55.74,31.56
		 M51.26,31.56c-0.6,0.67-1.06,1.47-1.31,2.36L15.61,20.48h8.5L51.26,31.56z M29.44,20.48h11.29l-5.65,2.3L29.44,20.48z M41.74,25.5
		l-3.99-1.63l8.31-3.39h8.5L41.74,25.5z M63.8,17.46c0,0.56-0.45,1.01-1.01,1.01H6.38c-0.56,0-1.01-0.45-1.01-1.01v-2.02h6.04v-2.02
		H5.37V5.37h10.07v8.06h-2.02v2.02h2.02h2.02h10.08h2.01h10.08h2.02h10.07h2.02H63.8V17.46z M63.8,13.43H53.73V5.37H63.8V13.43z"/>
</g>
</svg>
