<?xml version="1.0" encoding="utf-8"?>
<!-- Generator: Adobe Illustrator 23.0.5, SVG Export Plug-In . SVG Version: 6.00 Build 0)  -->
<svg version="1.1" id="Capa_1" xmlns="http://www.w3.org/2000/svg" xmlns:xlink="http://www.w3.org/1999/xlink" x="0px" y="0px"
	 viewBox="0 0 96.65 100.94" style="enable-background:new 0 0 96.65 100.94;" xml:space="preserve">
<style type="text/css">
	.st0{fill:#FFFFFF;}
</style>
<g>
	<path class="st0" d="M90.87,29.97c-2.32,0-4.2-1.89-4.2-4.2c0-0.71-0.58-1.29-1.29-1.29c-0.71,0-1.29,0.58-1.29,1.29
		c0,2.32-1.89,4.2-4.2,4.2c-0.71,0-1.29,0.58-1.29,1.29c0,0.71,0.58,1.29,1.29,1.29c2.32,0,4.2,1.88,4.2,4.2
		c0,0.71,0.58,1.29,1.29,1.29c0.71,0,1.29-0.58,1.29-1.29c0-2.32,1.89-4.2,4.2-4.2c0.71,0,1.29-0.58,1.29-1.29
		C92.16,30.54,91.58,29.97,90.87,29.97 M85.38,32.77c-0.42-0.58-0.94-1.1-1.52-1.52c0.58-0.42,1.1-0.94,1.52-1.52
		c0.42,0.58,0.94,1.1,1.52,1.52C86.32,31.68,85.81,32.19,85.38,32.77"/>
	<path class="st0" d="M16.75,29.97c-2.32,0-4.2-1.89-4.2-4.2c0-0.71-0.58-1.29-1.29-1.29c-0.71,0-1.29,0.58-1.29,1.29
		c0,2.32-1.89,4.2-4.2,4.2c-0.71,0-1.29,0.58-1.29,1.29c0,0.71,0.58,1.29,1.29,1.29c2.32,0,4.2,1.88,4.2,4.2
		c0,0.71,0.58,1.29,1.29,1.29c0.71,0,1.29-0.58,1.29-1.29c0-2.32,1.89-4.2,4.2-4.2c0.71,0,1.29-0.58,1.29-1.29
		C18.04,30.54,17.47,29.97,16.75,29.97 M11.26,32.77c-0.42-0.58-0.94-1.1-1.52-1.52c0.58-0.42,1.1-0.94,1.52-1.52
		c0.42,0.58,0.94,1.1,1.52,1.52C12.2,31.68,11.69,32.19,11.26,32.77"/>
	<path class="st0" d="M55.19,13.5c-3.07,0-5.58-2.5-5.58-5.58c0-0.71-0.58-1.29-1.29-1.29c-0.71,0-1.29,0.58-1.29,1.29
		c0,3.07-2.5,5.58-5.58,5.58c-0.71,0-1.29,0.58-1.29,1.29c0,0.71,0.58,1.29,1.29,1.29c3.07,0,5.58,2.5,5.58,5.58
		c0,0.71,0.58,1.29,1.29,1.29c0.71,0,1.29-0.58,1.29-1.29c0-3.08,2.5-5.58,5.58-5.58c0.71,0,1.29-0.57,1.29-1.29
		C56.47,14.07,55.9,13.5,55.19,13.5 M48.32,17.25c-0.64-0.99-1.48-1.83-2.47-2.47c0.99-0.64,1.84-1.48,2.47-2.47
		c0.64,0.99,1.48,1.84,2.47,2.47C49.8,15.42,48.96,16.26,48.32,17.25"/>
	<path class="st0" d="M75.11,50.04l-5.01-14.18c-0.38-1.06-1.38-1.77-2.51-1.77H28.7c-1.13,0-2.13,0.71-2.51,1.77l-5.01,14.18
		c-0.29,0.82,0.34,1.72,1.21,1.72h51.5c0.42,0,0.81-0.2,1.05-0.54C75.19,50.87,75.25,50.43,75.11,50.04 M24.22,49.18l4.4-12.47
		c0.01-0.03,0.05-0.06,0.08-0.06h38.9c0.04,0,0.07,0.02,0.08,0.06l4.4,12.47H24.22z"/>
	<path class="st0" d="M72.86,67.02c-4.57,0-8.15,2.37-8.15,5.4c0,3.03,3.58,5.41,8.15,5.41c4.57,0,8.15-2.37,8.15-5.41
		C81.01,69.4,77.43,67.02,72.86,67.02 M72.86,75.26c-3.19,0-5.58-1.49-5.58-2.83c0-1.34,2.38-2.83,5.58-2.83
		c3.19,0,5.58,1.49,5.58,2.83C78.43,73.77,76.05,75.26,72.86,75.26"/>
	<path class="st0" d="M23.45,67.02c-4.57,0-8.15,2.37-8.15,5.4c0,3.03,3.58,5.41,8.15,5.41c4.57,0,8.15-2.37,8.15-5.41
		C31.6,69.4,28.02,67.02,23.45,67.02 M23.45,75.26c-3.19,0-5.58-1.49-5.58-2.83c0-1.34,2.39-2.83,5.58-2.83
		c3.19,0,5.58,1.49,5.58,2.83C29.02,73.77,26.64,75.26,23.45,75.26"/>
	<path class="st0" d="M89.33,47.81h-6.86c-0.59,0-1.11,0.4-1.25,0.97l-0.9,3.62l-6.32-17.91c-0.95-2.7-3.52-4.52-6.39-4.52H28.7
		c-2.87,0-5.44,1.82-6.39,4.52L15.99,52.4l-0.9-3.62c-0.14-0.57-0.66-0.97-1.25-0.97H6.98c-0.71,0-1.29,0.58-1.29,1.29v5.49
		c0,0.71,0.58,1.29,1.29,1.29h7.11L9.7,62.01c-0.83,1.16-1.26,2.52-1.26,3.94v16.08c0,2.23,1.08,4.21,2.75,5.45
		c0,0.02,0,0.03,0,0.04v4.12c0,1.47,1.19,2.66,2.66,2.66h8.24c1.47,0,2.66-1.19,2.66-2.66v-2.83h46.84v2.83
		c0,1.47,1.19,2.66,2.66,2.66h8.24c1.47,0,2.66-1.19,2.66-2.66v-4.12c0-0.02,0-0.03,0-0.04c1.66-1.24,2.75-3.22,2.75-5.45V65.95
		c0-1.42-0.44-2.78-1.26-3.94l-4.39-6.14h7.11c0.71,0,1.29-0.58,1.29-1.29V49.1C90.61,48.39,90.04,47.81,89.33,47.81 M8.26,53.3
		v-2.92h4.57l0.73,2.92H8.26z M22.16,91.65c0,0.05-0.04,0.08-0.09,0.08h-8.23c-0.05,0-0.09-0.04-0.09-0.08v-2.83h1.46h6.95V91.65z
		 M82.55,91.65c0,0.05-0.04,0.08-0.09,0.08h-8.23c-0.05,0-0.09-0.04-0.09-0.08v-2.83h6.95h1.46V91.65z M81.09,86.24H15.21
		c-1.87,0-3.46-1.23-4-2.92h73.88C84.55,85.01,82.96,86.24,81.09,86.24 M59.22,75.26H37.09v-2.92h22.13V75.26z M37.29,69.77
		c0.55-1.69,2.13-2.92,4-2.92h13.73c1.87,0,3.46,1.23,4,2.92H37.29z M59.22,80.75H37.09v-2.92h22.13V80.75z M84.51,63.51
		c0.51,0.72,0.78,1.56,0.78,2.44v14.8h-23.5v-9.69c0-3.74-3.04-6.78-6.78-6.78H41.29c-3.74,0-6.78,3.04-6.78,6.78v9.69h-23.5v-14.8
		c0-0.88,0.27-1.73,0.78-2.44l5.45-7.64h47.38c0.71,0,1.29-0.58,1.29-1.29c0-0.71-0.57-1.29-1.29-1.29H18.4l6.34-17.96
		c0.59-1.68,2.18-2.8,3.96-2.8h38.9c1.78,0,3.37,1.13,3.96,2.8L77.9,53.3h-7.79c-0.71,0-1.29,0.58-1.29,1.29
		c0,0.71,0.58,1.29,1.29,1.29h8.95L84.51,63.51z M88.04,53.3h-5.3l0.73-2.92h4.57V53.3z"/>
	<path class="st0" d="M27.56,62.91h-8.24c-0.71,0-1.29,0.58-1.29,1.29c0,0.71,0.58,1.29,1.29,1.29h8.24c0.71,0,1.29-0.58,1.29-1.29
		C28.85,63.48,28.27,62.91,27.56,62.91"/>
	<path class="st0" d="M76.98,62.91h-8.24c-0.71,0-1.29,0.58-1.29,1.29c0,0.71,0.58,1.29,1.29,1.29h8.24c0.71,0,1.29-0.58,1.29-1.29
		C78.26,63.48,77.69,62.91,76.98,62.91"/>
</g>
</svg>
