<?xml version="1.0" encoding="utf-8"?>
<!-- Generator: Adobe Illustrator 23.0.5, SVG Export Plug-In . SVG Version: 6.00 Build 0)  -->
<svg version="1.1" id="Capa_1" xmlns="http://www.w3.org/2000/svg" xmlns:xlink="http://www.w3.org/1999/xlink" x="0px" y="0px"
	 viewBox="0 0 82.42 78.42" style="enable-background:new 0 0 82.42 78.42;" xml:space="preserve">
<style type="text/css">
	.st0{fill:#FFFFFF;}
</style>
<g>
	<path class="st0" d="M62.7,12.24c0.03,0,0.07,0.01,0.11,0.01c0.06,0,0.12-0.01,0.18-0.01c1.59,0.03,2.86,1.33,2.86,2.92
		c0,0.72,0.59,1.31,1.31,1.31c0.72,0,1.31-0.59,1.31-1.31c0-2.6-1.81-4.85-4.35-5.41V8.48c0-0.72-0.59-1.31-1.31-1.31
		S61.5,7.76,61.5,8.48V9.8c-2.68,0.72-4.42,3.31-4.06,6.07c0.36,2.75,2.71,4.81,5.49,4.81c1.61,0,2.92,1.31,2.92,2.92
		c0,1.61-1.31,2.92-2.92,2.92c-1.61,0-2.92-1.31-2.92-2.92c0-0.72-0.58-1.31-1.31-1.31c-0.72,0-1.31,0.59-1.31,1.31
		c0,2.5,1.69,4.7,4.11,5.35v1.43c0,0.72,0.59,1.31,1.31,1.31s1.31-0.59,1.31-1.31v-1.37c2.76-0.6,4.62-3.19,4.32-6
		c-0.3-2.81-2.68-4.94-5.51-4.94c-1.57,0-2.86-1.24-2.92-2.81C59.94,13.7,61.13,12.36,62.7,12.24L62.7,12.24z"/>
	<path class="st0" d="M63,0.78c-8.05,0-14.91,5.25-17.48,12.28H13.06c-0.72,0-1.3,0.65-1.31,1.37L11.44,60.3H2.19
		c-0.72,0-1.34,0.52-1.34,1.25v5.82c0.02,5.48,4.33,9.98,9.81,10.23v0.03h40.38v-0.04c0.33,0.01,0.46,0.04,0.67,0.04h0.03
		c5.67-0.01,10.26-4.61,10.26-10.27V37.93c0.33,0.02,0.67,0.03,1.01,0.03c10.24,0,18.57-8.35,18.57-18.59
		C81.57,9.13,73.24,0.78,63,0.78 M11.15,75.02L11.15,75.02c-4.24,0-7.67-3.43-7.69-7.66v-4.44h37.92v4.42
		c0,2.73,1.09,5.35,3.03,7.27c0.14,0.14,0.31,0.24,0.45,0.41H11.15z M59.37,67.36c0,4.22-3.42,7.65-7.64,7.66H51.7
		c-4.24-0.01-7.68-3.44-7.7-7.67v-5.79c0.01-0.33-0.12-0.66-0.35-0.9c-0.24-0.24-0.56-0.36-0.9-0.35h-28.7l0.3-44.63h30.43
		c-0.23,1.2-0.35,2.41-0.36,3.63c0,2.58,0.53,5.13,1.58,7.48H33.66c-0.72,0-1.31,0.59-1.31,1.31s0.58,1.31,1.31,1.31h13.77
		c2.7,4.24,7.01,7.2,11.94,8.19V67.36z M63,35.34c-8.81,0-15.95-7.14-15.95-15.95c0-8.81,7.14-15.95,15.95-15.95
		c8.81,0,15.95,7.14,15.95,15.95C78.94,28.19,71.81,35.33,63,35.34"/>
	<path class="st0" d="M25.27,35.5c-2.31,0-4.19,1.82-4.19,4.05c0,2.23,1.88,4.05,4.19,4.05c2.31,0,4.19-1.82,4.19-4.05
		C29.45,37.31,27.57,35.5,25.27,35.5 M25.27,40.99c-0.87,0-1.57-0.64-1.57-1.44c0-0.79,0.7-1.44,1.57-1.44
		c0.87,0,1.57,0.65,1.57,1.44S26.13,40.99,25.27,40.99"/>
	<path class="st0" d="M32.35,39.54c0,0.72,0.58,1.31,1.31,1.31H51.1c0.72,0,1.31-0.59,1.31-1.31c0-0.72-0.59-1.31-1.31-1.31H33.66
		C32.94,38.24,32.35,38.82,32.35,39.54"/>
	<path class="st0" d="M25.27,24.13c-2.31,0-4.19,1.82-4.19,4.05c0,2.23,1.88,4.05,4.19,4.05c2.31,0,4.19-1.82,4.19-4.05
		C29.45,25.95,27.57,24.13,25.27,24.13 M25.27,29.62c-0.87,0-1.57-0.64-1.57-1.44s0.7-1.44,1.57-1.44c0.87,0,1.57,0.65,1.57,1.44
		C26.84,28.97,26.13,29.62,25.27,29.62L25.27,29.62z"/>
	<path class="st0" d="M25.27,46.86c-2.31,0-4.19,1.82-4.19,4.05c0,2.23,1.88,4.05,4.19,4.05c2.31,0,4.19-1.82,4.19-4.05
		C29.45,48.68,27.57,46.86,25.27,46.86 M25.27,52.35c-0.87,0-1.57-0.64-1.57-1.44s0.7-1.44,1.57-1.44c0.87,0,1.57,0.65,1.57,1.44
		C26.84,51.71,26.13,52.35,25.27,52.35"/>
	<path class="st0" d="M51.09,49.68H33.66c-0.72,0-1.31,0.59-1.31,1.31c0,0.72,0.59,1.31,1.31,1.31h17.44c0.72,0,1.31-0.59,1.31-1.31
		C52.4,50.26,51.82,49.68,51.09,49.68"/>
</g>
</svg>
