<?xml version="1.0" encoding="utf-8"?>
<!-- Generator: Adobe Illustrator 23.0.5, SVG Export Plug-In . SVG Version: 6.00 Build 0)  -->
<svg version="1.1" id="Capa_1" xmlns="http://www.w3.org/2000/svg" xmlns:xlink="http://www.w3.org/1999/xlink" x="0px" y="0px"
	 viewBox="0 0 55 55" style="enable-background:new 0 0 55 55;" xml:space="preserve">
<style type="text/css">
	.st0{fill:#FFFFFF;}
</style>
<g>
	<path class="st0" d="M44.75,39.81c-0.85,0-1.65,0.37-2.21,1.02c-0.19-0.22-0.4-0.41-0.64-0.56c0.77-0.81,1.47-1.68,2.09-2.6
		l-1.46-0.98c-0.78,1.16-1.7,2.23-2.73,3.18c-0.65,0.12-1.24,0.46-1.67,0.96c-1.04-1.21-2.87-1.35-4.08-0.31
		c-0.24,0.21-0.45,0.46-0.61,0.74c-0.45-0.88-1.36-1.44-2.35-1.44h-4.82c-1.29-1.67-3.27-2.64-5.38-2.64h-1.57
		c-1.77,0-3.48,0.69-4.74,1.93c-0.95-0.99-1.78-2.08-2.48-3.26l-1.51,0.9c0.65,1.09,1.41,2.12,2.26,3.07h-4.6v-0.88
		c0-0.49-0.39-0.88-0.88-0.88H2.08c-0.49,0-0.88,0.39-0.88,0.88V53c0,0.49,0.39,0.88,0.88,0.88h12.31c0.49,0,0.88-0.39,0.88-0.88
		v-0.74l11.3,1.61c0.04,0.01,0.08,0.01,0.13,0.01c0.03,0,0.06,0,0.1-0.01l15.83-1.76c0.27-0.03,0.51-0.19,0.66-0.42l2.65-4.4
		c0.02-0.04,0.04-0.07,0.06-0.11l1.43-3.34c0.63-1.47-0.05-3.18-1.52-3.81C45.53,39.89,45.14,39.81,44.75,39.81 M6.47,52.12H2.96
		V39.81h3.52V52.12z M33.3,45.96l0.08-0.18c0.12-0.09,0.21-0.2,0.27-0.33c0.98-0.32,1.94-0.71,2.86-1.18l-0.73,1.69H33.3z
		 M38.31,44.55l0.79-1.85c0.49-0.35,0.96-0.72,1.42-1.12c0.62,0.1,1.05,0.68,0.95,1.3c-0.02,0.09-0.04,0.19-0.08,0.27l0.01,0.01
		l-1.2,2.8h-2.5L38.31,44.55z M35.94,41.57c0.37,0,0.73,0.18,0.94,0.49c-0.78,0.47-1.59,0.88-2.42,1.22l0.44-1.02
		C35.07,41.84,35.48,41.57,35.94,41.57 M20.89,38.93c1.69,0,3.26,0.84,4.2,2.25c0.16,0.24,0.44,0.39,0.73,0.39h5.27
		c0.49,0,0.88,0.39,0.88,0.88v1.66c-0.14,0.04-0.29,0.07-0.44,0.1h-1.32c-0.27,0-0.52,0.12-0.69,0.33
		c-4.95,0.55-9.9-0.98-13.67-4.23c0.93-0.89,2.17-1.38,3.46-1.38H20.89z M13.51,52.12H8.23V41.57h5.28V52.12z M45.8,43.16
		l-1.41,3.28l-2.4,3.97l-15.28,1.7l-11.44-1.64V42.1c4.19,3.33,9.55,4.83,14.86,4.13l1.23,1.23c0.17,0.16,0.39,0.26,0.62,0.26h8.81
		c0.35,0,0.67-0.21,0.81-0.53l2.11-4.93c0.18-0.42,0.59-0.69,1.05-0.69c0.63,0,1.14,0.51,1.14,1.14
		C45.89,42.86,45.86,43.02,45.8,43.16"/>
	<path class="st0" d="M52.92,1.12H40.61c-0.49,0-0.88,0.39-0.88,0.88v0.74L28.43,1.13c-0.07-0.01-0.15-0.01-0.22,0L12.38,2.89
		c-0.27,0.03-0.51,0.19-0.65,0.42L9.07,7.7C9.05,7.74,9.04,7.77,9.02,7.81l-1.43,3.34c-0.63,1.47,0.05,3.18,1.52,3.81
		c1.17,0.5,2.52,0.18,3.35-0.78c0.21,0.24,0.46,0.45,0.74,0.62c-1.48,1.56-2.69,3.35-3.59,5.31l1.6,0.74c1-2.17,2.43-4.12,4.19-5.74
		c0.57-0.15,1.08-0.47,1.47-0.91c1.04,1.21,2.87,1.35,4.09,0.31c0.24-0.21,0.45-0.46,0.61-0.74c0.45,0.88,1.36,1.44,2.35,1.44h4.83
		c1.29,1.67,3.27,2.64,5.38,2.64h1.57c1.81,0,3.55-0.72,4.82-2c1.42,1.46,2.59,3.16,3.44,5.01l1.6-0.74
		c-0.83-1.79-1.91-3.44-3.23-4.91h4.45v0.88c0,0.49,0.39,0.88,0.88,0.88h5.27c0.49,0,0.88-0.39,0.88-0.88V2
		C53.8,1.52,53.41,1.12,52.92,1.12 M10.25,13.43c-0.63,0-1.14-0.51-1.14-1.14c0-0.15,0.03-0.31,0.09-0.45l1.41-3.28l2.4-3.97
		l15.29-1.7l11.44,1.63v8.26c-0.44-0.34-0.89-0.67-1.36-0.98c-3.21-2.1-6.96-3.21-10.8-3.21c-0.9,0-1.79,0.06-2.68,0.18l-1.24-1.24
		c-0.17-0.17-0.39-0.26-0.62-0.26h-8.81c-0.35,0-0.67,0.21-0.81,0.53l-2.11,4.93C11.12,13.16,10.71,13.43,10.25,13.43 M14.62,13.43
		c-0.63-0.02-1.12-0.55-1.1-1.18c0.01-0.14,0.04-0.28,0.09-0.41l-0.01,0l1.2-2.8h2.5l-0.6,1.41l-0.86,2.01
		C15.41,12.77,15.01,13.09,14.62,13.43z M19.21,9.04h2.48l-0.08,0.18c-0.13,0.1-0.23,0.23-0.29,0.39c-0.99,0.33-1.96,0.74-2.88,1.22
		L19.21,9.04z M19.06,13.43c-0.35,0-0.68-0.16-0.89-0.43c0.75-0.46,1.54-0.87,2.35-1.21l-0.41,0.95
		C19.93,13.16,19.52,13.43,19.06,13.43 M34.11,16.07c-1.69,0-3.26-0.84-4.2-2.25c-0.16-0.24-0.44-0.39-0.73-0.39h-5.28
		c-0.48,0-0.88-0.39-0.88-0.88v-1.62c0.19-0.05,0.39-0.09,0.58-0.14h1.18c0.26,0,0.51-0.11,0.67-0.31c0.7-0.08,1.41-0.12,2.11-0.13
		c3.49,0,6.91,1.01,9.84,2.92c0.63,0.41,1.23,0.86,1.81,1.35c-0.94,0.93-2.21,1.45-3.53,1.45H34.11z M41.49,2.88h5.27v10.55h-5.27
		V2.88z M52.04,15.19h-3.52V2.88h3.52V15.19z"/>
	<path class="st0" d="M45.53,24.11l-2.56-1.32c-3.05-1.52-6.42-2.32-9.83-2.32h-3.07c-2.95,0-5.84,0.87-8.29,2.51l-1.51,1.01h-5.01
		c-4.37,0.01-7.91,3.55-7.91,7.91v0.88c0,0.49,0.39,0.88,0.88,0.88h5.28c1.45,1.94,4.21,2.34,6.15,0.88
		c0.33-0.25,0.63-0.55,0.88-0.88h17.59c1.45,1.94,4.21,2.34,6.15,0.88c0.33-0.25,0.63-0.55,0.88-0.88h0.76
		c1.47,0,2.85-0.73,3.66-1.96l0.71-1.07c0.1-0.15,0.15-0.31,0.15-0.49C50.43,27.22,48.39,24.71,45.53,24.11 M34.61,26.83v1.24
		l-3.06,3.83h-6.61v-6.16h9.13L34.61,26.83z M35.15,23.98l0.78-1.56c1.88,0.26,3.72,0.79,5.45,1.56H35.15z M30.08,22.22h3.07
		c0.3,0,0.61,0.01,0.91,0.02l-0.87,1.73H23.5C25.5,22.83,27.77,22.22,30.08,22.22 M17.02,33.65c-1.46,0-2.64-1.18-2.64-2.64
		c0-1.46,1.18-2.64,2.64-2.64c1.46,0,2.64,1.18,2.64,2.64C19.66,32.47,18.48,33.65,17.02,33.65 M17.02,26.62
		c-2.43,0-4.4,1.97-4.4,4.4c0,0.29,0.03,0.59,0.09,0.88H9.11c0-0.6,0.09-1.19,0.26-1.76h1.5v-1.76h-0.65
		c1.15-1.65,3.04-2.64,5.05-2.64h7.91v6.16h-1.85c0.49-2.38-1.05-4.7-3.43-5.19C17.61,26.65,17.32,26.62,17.02,26.62 M41.64,33.65
		c-1.46,0-2.64-1.18-2.64-2.64c0-1.46,1.18-2.64,2.64-2.64c1.46,0,2.64,1.18,2.64,2.64C44.28,32.47,43.1,33.65,41.64,33.65
		 M48.11,30.72c-0.48,0.72-1.29,1.16-2.16,1.17c0.48-2.38-1.05-4.7-3.43-5.18c-2.38-0.48-4.7,1.05-5.18,3.43
		c-0.12,0.58-0.12,1.18,0,1.75H33.8l2.37-2.97c0.13-0.16,0.19-0.35,0.19-0.55v-1.76c0-0.14-0.03-0.27-0.09-0.39l-0.24-0.49h8.25
		c1.38,0,2.68,0.65,3.51,1.76h-1.76v1.76h2.55c0.04,0.21,0.07,0.42,0.08,0.63L48.11,30.72z"/>
</g>
</svg>
