<?xml version="1.0" encoding="utf-8"?>
<!-- Generator: Adobe Illustrator 23.0.5, SVG Export Plug-In . SVG Version: 6.00 Build 0)  -->
<svg version="1.1" id="Capa_1" xmlns="http://www.w3.org/2000/svg" xmlns:xlink="http://www.w3.org/1999/xlink" x="0px" y="0px"
	 viewBox="0 0 77 77" style="enable-background:new 0 0 77 77;" xml:space="preserve">
<style type="text/css">
	.st0{fill:#FFFFFF;}
</style>
<g>
	<path class="st0" d="M72.42,11.42c-0.47-0.11-0.96,0.03-1.3,0.38l-5.77,5.82h-2.77l-3.05-3.16v-2.81l5.69-5.77
		c0.34-0.34,0.47-0.83,0.36-1.3c-0.11-0.47-0.46-0.84-0.91-1c-1.43-0.48-2.93-0.73-4.45-0.73c-4.54,0-8.66,2.11-11.31,5.8
		c-2.48,3.45-3.24,7.68-2.15,11.73L36.51,30.64L19.42,13.52v-3.36c0-0.49-0.26-0.94-0.68-1.19L8.9,3.05
		C8.35,2.72,7.65,2.81,7.2,3.26L3.26,7.2C2.81,7.65,2.73,8.35,3.05,8.9l5.91,9.85c0.25,0.42,0.7,0.68,1.19,0.68l3.36,0l17.09,17.13
		L20.39,46.77c-4.05-1.09-8.28-0.33-11.73,2.15c-3.69,2.65-5.8,6.77-5.8,11.3c0,1.52,0.24,3.02,0.73,4.45c0.15,0.46,0.53,0.8,1,0.91
		c0.47,0.11,0.96-0.03,1.3-0.38l5.77-5.82h2.78l3.17,3.17v2.78l-5.82,5.77c-0.34,0.34-0.48,0.83-0.38,1.3
		c0.11,0.47,0.45,0.85,0.91,1.01c1.43,0.48,2.93,0.73,4.45,0.73c4.54,0,8.65-2.11,11.3-5.8c2.48-3.45,3.25-7.69,2.15-11.73
		l8.21-8.21l1.88,2.04l-0.86,0.86c-0.54,0.54-0.54,1.43,0,1.97c0.54,0.54,1.43,0.54,1.97,0l0.78-0.78l17.64,19.16
		c0.01,0.01,0.03,0.03,0.04,0.04c3.26,3.26,8.55,3.27,11.82,0c3.26-3.26,3.26-8.56,0-11.81c-0.01-0.01-0.03-0.03-0.04-0.04
		l-19.19-17.6l0.77-0.77c0.54-0.54,0.54-1.43,0-1.97s-1.42-0.54-1.97,0l-0.86,0.86l-2.05-1.88l8.25-8.25
		c1.17,0.31,2.38,0.47,3.61,0.47c7.68,0,13.92-6.25,13.92-13.92c0-1.52-0.24-3.02-0.73-4.45C73.27,11.87,72.89,11.53,72.42,11.42
		 M15.08,17.05c-0.26-0.26-0.61-0.4-0.99-0.4l-3.15,0L6,8.4L8.4,6l8.24,4.94v3.15c0,0.37,0.15,0.72,0.41,0.98l17.5,17.54l-1.97,1.97
		L15.08,17.05z M50.5,44.21l19.25,17.66c2.15,2.17,2.14,5.69-0.02,7.86c-2.17,2.17-5.68,2.18-7.86,0.02l-17.7-19.22L50.5,44.21z
		 M48.44,42.32l-6.15,6.15l-1.88-2.04l5.99-5.99L48.44,42.32z M60.22,27.92c-1.22,0-2.42-0.19-3.56-0.58
		c-0.5-0.17-1.05-0.04-1.43,0.33c-6.98,6.98-22.02,22.02-27.56,27.56c-0.38,0.37-0.51,0.93-0.33,1.43c1.16,3.44,0.6,7.1-1.52,10.06
		c-2.12,2.95-5.41,4.64-9.04,4.64c-0.41,0-0.81-0.02-1.21-0.06l4.42-4.39c0.26-0.26,0.41-0.62,0.41-0.99v-3.94
		c0-0.37-0.15-0.72-0.41-0.99L16,57.01c-0.26-0.26-0.61-0.41-0.98-0.41h-3.94c-0.37,0-0.73,0.15-0.99,0.41L5.7,61.44
		c-0.04-0.4-0.07-0.81-0.07-1.21c0-3.63,1.69-6.92,4.64-9.04c2.96-2.12,6.62-2.68,10.06-1.52c0.5,0.17,1.05,0.04,1.43-0.33
		c0.08-0.08,27.54-27.54,27.56-27.56c0.37-0.38,0.5-0.93,0.33-1.43c-1.16-3.44-0.61-7.1,1.52-10.06c2.12-2.95,5.42-4.64,9.04-4.64
		c0.42,0,0.84,0.02,1.25,0.07l-4.33,4.4c-0.26,0.26-0.4,0.61-0.4,0.98v3.94c0,0.36,0.14,0.71,0.39,0.97l3.85,3.99
		c0.26,0.27,0.62,0.42,1,0.42h3.94c0.37,0,0.73-0.15,0.99-0.41l4.39-4.42c0.04,0.4,0.07,0.81,0.07,1.21
		C71.36,22.92,66.36,27.92,60.22,27.92"/>
</g>
</svg>
