<?xml version="1.0" encoding="utf-8"?>
<!-- Generator: Adobe Illustrator 23.0.5, SVG Export Plug-In . SVG Version: 6.00 Build 0)  -->
<svg version="1.1" id="Capa_1" xmlns="http://www.w3.org/2000/svg" xmlns:xlink="http://www.w3.org/1999/xlink" x="0px" y="0px"
	 viewBox="0 0 117.94 117.54" style="enable-background:new 0 0 117.94 117.54;" xml:space="preserve">
<style type="text/css">
	.st0{fill:#FFFFFF;}
	.st1{fill-rule:evenodd;clip-rule:evenodd;fill:#FF5F00;}
	.st2{fill:none;stroke:#FFFFFF;stroke-width:0.714;stroke-miterlimit:10;}
</style>
<g>
	<path class="st0" d="M116.5,58.77c0,31.77-25.76,57.53-57.53,57.53c-31.77,0-57.53-25.76-57.53-57.53S27.2,1.24,58.97,1.24
		C90.74,1.24,116.5,27,116.5,58.77"/>
	<path class="st1" d="M51.68,31.14l7.08-5.59c0.7-0.55,1.66-0.52,2.33,0.01L68,31.14h10.43c1.04,0,1.88,0.84,1.88,1.88v7.25
		l10.14,7.76c0.48,0.37,0.73,0.92,0.73,1.49l0,37.76c0,1.04-0.84,1.88-1.88,1.88H30.54c-1.04,0-1.88-0.84-1.88-1.88V49.52
		c0-0.65,0.33-1.23,0.84-1.56l10.04-7.69v-7.25c0-1.04,0.84-1.88,1.87-1.88H51.68z M48.92,49.46c-1.04,0-1.88,0.84-1.88,1.88
		c0,1.04,0.84,1.88,1.88,1.88c1.04,0,1.88-0.84,1.88-1.88C50.8,50.3,49.96,49.46,48.92,49.46 M56.42,53.21h14.5
		c1.04,0,1.88-0.84,1.88-1.88c0-1.04-0.84-1.88-1.88-1.88h-14.5c-1.04,0-1.88,0.84-1.88,1.88C54.55,52.37,55.39,53.21,56.42,53.21
		 M48.92,41.96c-1.04,0-1.88,0.84-1.88,1.88c0,1.04,0.84,1.88,1.88,1.88c1.04,0,1.88-0.84,1.88-1.88
		C50.8,42.8,49.96,41.96,48.92,41.96 M56.42,45.71h14.5c1.04,0,1.88-0.84,1.88-1.88c0-1.04-0.84-1.88-1.88-1.88h-14.5
		c-1.04,0-1.88,0.84-1.88,1.88C54.55,44.87,55.39,45.71,56.42,45.71 M33.28,49.78l6.26,5.54V44.98L33.28,49.78z M43.29,58.64
		l8.23,7.28l4.64-4.17c2.15-1.93,5.37-1.93,7.52,0l4.79,4.3l8.08-7.26v-23.9H43.29V58.64z M48.72,68.44
		c-5.44-4.81-10.87-9.62-16.3-14.43v29.07L48.72,68.44z M80.3,55.42l6.27-5.63l-6.27-4.8V55.42z M87.43,54.05L71.27,68.57
		l16.16,14.51V54.05z M84.41,85.4L61.17,64.54c-0.71-0.64-1.79-0.64-2.51,0L35.43,85.4H84.41z M62.05,31.14l-2.14-1.73l-2.2,1.73
		H62.05z"/>
	<path class="st2" d="M51.68,31.14l7.08-5.59c0.7-0.55,1.66-0.52,2.33,0.01L68,31.14h10.43c1.04,0,1.88,0.84,1.88,1.88v7.25
		l10.14,7.76c0.48,0.37,0.73,0.92,0.73,1.49l0,37.76c0,1.04-0.84,1.88-1.88,1.88H30.54c-1.04,0-1.88-0.84-1.88-1.88V49.52
		c0-0.65,0.33-1.23,0.84-1.56l10.04-7.69v-7.25c0-1.04,0.84-1.88,1.87-1.88H51.68z M48.92,49.46c-1.04,0-1.88,0.84-1.88,1.88
		c0,1.04,0.84,1.88,1.88,1.88c1.04,0,1.88-0.84,1.88-1.88C50.8,50.3,49.96,49.46,48.92,49.46z M56.42,53.21h14.5
		c1.04,0,1.88-0.84,1.88-1.88c0-1.04-0.84-1.88-1.88-1.88h-14.5c-1.04,0-1.88,0.84-1.88,1.88C54.55,52.37,55.39,53.21,56.42,53.21z
		 M48.92,41.96c-1.04,0-1.88,0.84-1.88,1.88c0,1.04,0.84,1.88,1.88,1.88c1.04,0,1.88-0.84,1.88-1.88
		C50.8,42.8,49.96,41.96,48.92,41.96z M56.42,45.71h14.5c1.04,0,1.88-0.84,1.88-1.88c0-1.04-0.84-1.88-1.88-1.88h-14.5
		c-1.04,0-1.88,0.84-1.88,1.88C54.55,44.87,55.39,45.71,56.42,45.71z M33.28,49.78l6.26,5.54V44.98L33.28,49.78z M43.29,58.64
		l8.23,7.28l4.64-4.17c2.15-1.93,5.37-1.93,7.52,0l4.79,4.3l8.08-7.26v-23.9H43.29V58.64z M48.72,68.44
		c-5.44-4.81-10.87-9.62-16.3-14.43v29.07L48.72,68.44z M80.3,55.42l6.27-5.63l-6.27-4.8V55.42z M87.43,54.05L71.27,68.57
		l16.16,14.51V54.05z M84.41,85.4L61.17,64.54c-0.71-0.64-1.79-0.64-2.51,0L35.43,85.4H84.41z M62.05,31.14l-2.14-1.73l-2.2,1.73
		H62.05z"/>
</g>
</svg>
