<?xml version="1.0" encoding="utf-8"?>
<!-- Generator: Adobe Illustrator 23.0.5, SVG Export Plug-In . SVG Version: 6.00 Build 0)  -->
<svg version="1.1" id="Capa_1" xmlns="http://www.w3.org/2000/svg" xmlns:xlink="http://www.w3.org/1999/xlink" x="0px" y="0px"
	 viewBox="0 0 43.78 45.65" style="enable-background:new 0 0 43.78 45.65;" xml:space="preserve">
<style type="text/css">
	.st0{fill:#FF5F00;}
</style>
<g>
	<path class="st0" d="M31.6,19.95v-8.11c0-0.23-0.11-0.45-0.26-0.62l-9.09-9.55C22.08,1.49,21.84,1.4,21.6,1.4H7.18
		C4.52,1.4,2.4,3.57,2.4,6.23v27.26c0,2.66,2.13,4.8,4.79,4.8h11.38c2.15,3.57,6.07,5.97,10.52,5.97c6.77,0,12.3-5.5,12.3-12.28
		C41.39,26.05,37.14,21.1,31.6,19.95 M22.49,4.53l6.1,6.42h-3.96c-1.18,0-2.14-0.97-2.14-2.15V4.53z M7.18,36.5
		c-1.67,0-3-1.34-3-3.01V6.23c0-1.68,1.33-3.05,3-3.05h13.52V8.8c0,2.17,1.76,3.94,3.93,3.94h5.18v6.97
		c-0.27-0.01-0.48-0.04-0.71-0.04c-3.12,0-5.98,1.2-8.15,3.07H9.61c-0.49,0-0.89,0.4-0.89,0.89c0,0.49,0.4,0.89,0.89,0.89h9.68
		c-0.63,0.89-1.16,1.79-1.57,2.77H9.61c-0.49,0-0.89,0.4-0.89,0.89c0,0.49,0.4,0.89,0.89,0.89h7.53c-0.22,0.89-0.34,1.88-0.34,2.88
		c0,1.61,0.31,3.2,0.88,4.54H7.18V36.5z M29.09,42.47c-5.79,0-10.5-4.71-10.5-10.49c0-5.79,4.7-10.49,10.5-10.49
		c5.8,0,10.49,4.71,10.49,10.49C39.59,37.77,34.88,42.47,29.09,42.47"/>
	<path class="st0" d="M9.61,20.06h9.05c0.49,0,0.89-0.4,0.89-0.89c0-0.49-0.4-0.89-0.89-0.89H9.61c-0.49,0-0.89,0.4-0.89,0.89
		C8.72,19.66,9.12,20.06,9.61,20.06"/>
	<path class="st0" d="M33.67,31.79L30,35.75V26c0-0.49-0.4-0.89-0.89-0.89c-0.49,0-0.89,0.4-0.89,0.89v9.75l-3.7-3.96
		c-0.34-0.36-0.91-0.38-1.27-0.04c-0.36,0.34-0.38,0.9-0.04,1.26l5.23,5.62c0.17,0.18,0.4,0.29,0.65,0.29s0.48-0.11,0.65-0.29
		l5.23-5.62c0.34-0.36,0.32-0.93-0.04-1.26C34.56,31.41,34.01,31.44,33.67,31.79"/>
</g>
</svg>
