<?xml version="1.0" encoding="utf-8"?>
<!-- Generator: Adobe Illustrator 23.0.5, SVG Export Plug-In . SVG Version: 6.00 Build 0)  -->
<svg version="1.1" id="Capa_1" xmlns="http://www.w3.org/2000/svg" xmlns:xlink="http://www.w3.org/1999/xlink" x="0px" y="0px"
	 viewBox="0 0 117.94 117.54" style="enable-background:new 0 0 117.94 117.54;" xml:space="preserve">
<style type="text/css">
	.st0{fill:#FFFFFF;}
	.st1{fill:#FF5F00;}
</style>
<g>
	<path class="st0" d="M116.5,58.77c0,31.77-25.76,57.53-57.53,57.53c-31.77,0-57.53-25.76-57.53-57.53S27.2,1.24,58.97,1.24
		C90.74,1.24,116.5,27,116.5,58.77"/>
	<path class="st1" d="M78.41,77.13c-0.93-2.77-3.29-4.82-6.16-5.34l-7.64-1.39V69.8c1.33-0.77,2.49-1.8,3.41-3.03h2.31
		c1.89,0,3.43-1.54,3.43-3.43V49.62c0-8.2-6.67-14.87-14.87-14.87s-14.87,6.67-14.87,14.87v8.01c0,2.2,1.57,4.05,3.65,4.48
		c0.64,3.29,2.7,6.07,5.5,7.7v0.59l-7.64,1.39c-2.88,0.52-5.24,2.57-6.16,5.34l-0.46,1.37l-3.89-3.89c-0.45-0.45-0.45-1.17,0-1.62
		l4.52-4.52l-8.48-8.48l-5.11,5.11c-1.51,1.51-2.34,3.52-2.34,5.66c0,2.14,0.83,4.15,2.34,5.66L41.4,91.88
		c1.51,1.51,3.52,2.35,5.66,2.35c2.14,0,4.15-0.83,5.62-2.31l5.57-5.1l-1.74-1.73h24.54L78.41,77.13z M58.89,74.31l-3.43-3.43v-0.05
		c1.08,0.34,2.24,0.53,3.43,0.53c1.2,0,2.35-0.19,3.43-0.53v0.05L58.89,74.31z M70.33,64.49h-0.96c0.33-0.76,0.58-1.55,0.74-2.38
		c0.49-0.1,0.94-0.3,1.36-0.54v1.78C71.47,63.97,70.96,64.49,70.33,64.49 M70.33,55.66c0.68,0.4,1.14,1.13,1.14,1.97
		c0,0.84-0.46,1.57-1.14,1.97V55.66z M46.31,57.63c0-0.84,0.46-1.57,1.14-1.97v3.94C46.77,59.2,46.31,58.47,46.31,57.63
		 M47.45,51.91v1.31c-0.41,0.11-0.79,0.27-1.14,0.47v-4.07c0-6.94,5.64-12.58,12.58-12.58c6.94,0,12.58,5.64,12.58,12.58v4.07
		c-0.35-0.21-0.74-0.37-1.14-0.47v-1.31h-1.14c-3.38,0-6.56-1.32-8.95-3.71l-1.34-1.34l-1.34,1.34c-2.39,2.39-5.57,3.71-8.95,3.71
		H47.45z M49.74,59.91v-5.76c3.43-0.26,6.64-1.67,9.15-4.06c2.51,2.39,5.71,3.81,9.15,4.06v5.76c0,1.67-0.46,3.23-1.24,4.58h-7.91
		v2.29h6.03c-1.61,1.42-3.72,2.29-6.03,2.29C53.84,69.06,49.74,64.96,49.74,59.91 M36.29,68.47l-1.24,1.24l-5.24-5.24l1.24-1.24
		L36.29,68.47z M47.06,91.94c-1.53,0-2.96-0.6-4.04-1.67L27.56,74.8c-1.08-1.08-1.68-2.52-1.68-4.04c0-1.53,0.6-2.96,1.68-4.05
		l0.63-0.63l5.25,5.25l-0.04,0.04c-1.34,1.34-1.34,3.52,0,4.85l8.2,8.2c0.65,0.65,1.51,1.01,2.43,1.01c0.92,0,1.78-0.36,2.38-0.96
		l0.09-0.08l5.27,5.27l-0.66,0.6C50.02,91.34,48.59,91.94,47.06,91.94 M53.45,88.11l-5.26-5.26l1.51-1.37l5.25,5.25L53.45,88.11z
		 M54.23,82.79l-4.46-4.45l-4.95,4.48c-0.43,0.43-1.18,0.43-1.62,0l-2.5-2.5l0.82-2.46c0.66-1.98,2.35-3.44,4.4-3.82l7.99-1.45
		l4.96,4.96l4.96-4.96l7.99,1.45c2.06,0.38,3.74,1.84,4.4,3.82l1.65,4.93H54.23z"/>
	<path class="st1" d="M90.91,23.31H74.9c-1.89,0-3.43,1.54-3.43,3.43v9.15c0,1.89,1.54,3.43,3.43,3.43h3.05l-1.18,6.9l11.04-6.9h3.1
		c1.89,0,3.43-1.54,3.43-3.43v-9.15C94.34,24.85,92.8,23.31,90.91,23.31 M92.05,35.89c0,0.63-0.51,1.14-1.14,1.14h-3.76l-7.26,4.54
		l0.78-4.54H74.9c-0.63,0-1.14-0.51-1.14-1.14v-9.15c0-0.63,0.51-1.14,1.14-1.14h16.01c0.63,0,1.14,0.51,1.14,1.14V35.89z"/>
	<rect x="76.04" y="27.89" class="st1" width="13.73" height="2.29"/>
	<rect x="76.04" y="32.46" class="st1" width="9.15" height="2.29"/>
	<rect x="87.48" y="32.46" class="st1" width="2.29" height="2.29"/>
	<path class="st1" d="M34.32,51.74l-1.18-1.96l-3.1,1.86c3.24-13.19,15.1-22.61,28.85-22.61c3.01,0,5.97,0.45,8.81,1.33l0.68-2.18
		c-3.06-0.95-6.25-1.43-9.49-1.43c-14.94,0-27.82,10.34-31.16,24.76l-2.17-3.61l-1.96,1.18l4.02,6.7L34.32,51.74z"/>
	<path class="st1" d="M83.07,51.32l1.96,1.18l2-3.34c1.05,3.08,1.59,6.31,1.59,9.61c0,6.8-2.36,13.45-6.63,18.72l1.78,1.44
		c4.61-5.68,7.14-12.84,7.14-20.16c0-3.5-0.56-6.91-1.66-10.18l3.36,2.02l1.18-1.96l-6.7-4.02L83.07,51.32z"/>
</g>
</svg>
