<?xml version="1.0" encoding="utf-8"?>
<!-- Generator: Adobe Illustrator 23.0.5, SVG Export Plug-In . SVG Version: 6.00 Build 0)  -->
<svg version="1.1" id="Capa_1" xmlns="http://www.w3.org/2000/svg" xmlns:xlink="http://www.w3.org/1999/xlink" x="0px" y="0px"
	 viewBox="0 0 59 55" style="enable-background:new 0 0 59 55;" xml:space="preserve">
<style type="text/css">
	.st0{fill:#FFFFFF;}
</style>
<g>
	<path class="st0" d="M9.05,17.64c0.09-0.16,0.17-0.31,0.25-0.46c0.64-1.2,1.19-2.47,1.93-3.6c1.58-2.4,3.79-4.04,6.6-4.75
		c1.47-0.37,2.97-0.62,4.5-0.62c4.84,0.01,9.69-0.02,14.53,0.02c2.16,0.02,4.3,0.36,6.27,1.3c2.5,1.19,4.32,3.08,5.54,5.55
		c0.37,0.75,0.75,1.5,1.13,2.26c0.05,0.09,0.1,0.19,0.17,0.31c0.39-0.33,0.74-0.6,0.68-1.19c-0.11-1.02,0.39-1.67,1.29-2.14
		c0.83-0.43,1.66-0.69,2.6-0.6c0.6,0.06,1.23-0.01,1.82,0.13c0.89,0.21,1.64,1.28,1.63,2.19c-0.01,0.51,0.02,1.04-0.1,1.53
		c-0.23,0.93-1.27,1.67-2.23,1.68c-0.46,0-0.92-0.03-1.38,0.01c-0.74,0.06-1.42-0.1-2.06-0.48c-0.51-0.3-0.61-0.24-0.95,0.31
		c0.52,0.31,1.04,0.64,1.56,0.94c2.11,1.24,2.26,1.31,3.16,3.66c0.29,0.74,0.61,1.47,0.86,2.23c0.13,0.39,0.21,0.81,0.21,1.22
		c0.02,3.82,0.03,7.63,0,11.45c-0.01,1.86-0.82,3.35-2.33,4.43c-0.33,0.24-0.44,0.47-0.42,0.85c0.05,1-0.34,1.81-1.14,2.41
		c-0.45,0.33-0.96,0.52-1.53,0.52c-1.89,0.01-3.78,0.02-5.67,0c-1.35-0.01-2.5-1.09-2.66-2.44c-0.01-0.09-0.02-0.17-0.03-0.29H15.78
		c-0.09,0.33-0.14,0.68-0.27,0.99c-0.47,1.1-1.32,1.71-2.52,1.72c-1.86,0.03-3.72,0.02-5.58,0c-1.5-0.01-2.72-1.23-2.7-2.72
		c0.01-0.55-0.16-0.86-0.6-1.2c-1.42-1.07-2.16-2.53-2.16-4.32c-0.02-3.8-0.02-7.61,0.01-11.41c0-0.51,0.14-1.04,0.32-1.52
		c0.39-1.08,0.83-2.14,1.27-3.19c0.3-0.73,0.81-1.29,1.49-1.7c0.91-0.55,1.81-1.09,2.76-1.66c-0.15-0.16-0.26-0.3-0.4-0.41
		C7.32,18.6,7.2,18.61,7.1,18.61c-0.02,0-0.04,0.02-0.06,0.03c-0.85,0.57-1.8,0.68-2.79,0.6c-0.53-0.04-1.08,0.01-1.59-0.12
		c-0.91-0.23-1.65-1.28-1.64-2.22c0.01-0.52-0.01-1.06,0.12-1.56c0.23-0.89,1.29-1.62,2.2-1.62c0.66,0,1.31-0.02,1.97,0.01
		c0.32,0.02,0.65,0.1,0.94,0.22c0.4,0.16,0.79,0.37,1.17,0.58c0.61,0.35,0.92,0.88,0.94,1.58c0,0.1,0.02,0.2,0,0.3
		C8.26,16.98,8.6,17.31,9.05,17.64 M29.56,19.23c-4.47,0-8.94,0-13.41,0c-0.2,0-0.4,0-0.59,0.03c-1.57,0.22-3.14,0.44-4.7,0.68
		c-0.48,0.07-1.01,0.09-1.42,0.31c-1.15,0.62-2.26,1.32-3.38,2c-0.42,0.25-0.71,0.6-0.89,1.06c-0.4,1-0.82,2-1.19,3.01
		c-0.13,0.36-0.14,0.76-0.18,1.15c-0.01,0.08,0.13,0.22,0.22,0.25c0.41,0.11,0.83,0.19,1.24,0.28c1.84,0.41,3.69,0.81,5.53,1.24
		c0.29,0.07,0.45,0,0.6-0.24c0.59-0.94,1.42-1.59,2.47-1.94c0.28-0.09,0.55-0.21,0.82-0.32c1.1-0.45,2.21-0.91,3.4-1.06
		c1.29-0.16,2.59-0.25,3.88-0.36c1.8-0.15,3.59-0.3,5.39-0.41c1.01-0.06,2.03-0.14,3.04-0.08c2.36,0.13,4.71,0.33,7.06,0.51
		c1,0.08,2.01,0.16,3,0.27c1.36,0.15,2.63,0.61,3.88,1.14c0.38,0.16,0.77,0.31,1.16,0.46c0.94,0.35,1.61,1.02,2.16,1.84
		c0.1,0.14,0.19,0.28,0.42,0.23c0.68-0.16,1.36-0.3,2.05-0.45c1.46-0.32,2.92-0.66,4.38-0.97c0.75-0.16,0.81-0.22,0.7-0.98
		c-0.01-0.07-0.03-0.15-0.05-0.22c-0.43-1.09-0.86-2.17-1.28-3.26c-0.2-0.52-0.51-0.9-0.98-1.18c-1.03-0.61-2.05-1.25-3.09-1.84
		c-0.28-0.16-0.6-0.26-0.91-0.32c-1.22-0.2-2.44-0.36-3.66-0.53c-1.04-0.15-2.07-0.3-3.13-0.29C37.91,19.25,33.74,19.23,29.56,19.23
		 M48.07,18.06c-0.07-0.17-0.11-0.27-0.16-0.37c-0.32-0.66-0.64-1.31-0.98-1.96c-1.1-2.13-2.7-3.76-4.92-4.69
		c-1.67-0.7-3.45-0.97-5.25-0.98c-4.52-0.03-9.03,0.01-13.55-0.02c-1.5-0.01-2.96,0.16-4.42,0.45c-2.54,0.51-4.52,1.89-5.96,4
		c-0.71,1.05-1.22,2.24-1.82,3.37c-0.03,0.05-0.02,0.11-0.04,0.2c0.66-0.09,1.29-0.17,1.91-0.26c1.46-0.21,2.91-0.42,4.4-0.41
		c8.02,0.03,16.03,0.03,24.04,0c1.67-0.01,3.31,0.18,4.95,0.43C46.86,17.9,47.43,17.97,48.07,18.06 M48.96,30.96
		c0.04,0.51,0.15,0.97,0.11,1.42c-0.13,1.59-0.99,2.74-2.3,3.58c-0.82,0.53-1.71,0.75-2.72,0.75c-9.69-0.03-19.38-0.03-29.06-0.01
		c-0.9,0-1.7-0.18-2.5-0.59c-1.42-0.73-2.92-2.7-2.5-4.62c0.04-0.17,0.07-0.33,0.11-0.53c-2.11-0.47-4.19-0.93-6.29-1.4
		c-0.01,0.12-0.02,0.19-0.02,0.25c0,1.83,0,3.65,0,5.48c0,0.12,0.05,0.26,0.11,0.36c0.31,0.48,0.61,0.96,0.95,1.41
		c0.9,1.23,2.1,2.05,3.62,2.26c0.87,0.12,1.76,0.08,2.65,0.1c0.09,0,0.21-0.1,0.25-0.19c0.56-1.1,1.45-1.64,2.69-1.64
		c10.3,0,20.6,0,30.9,0c1.21,0,2.09,0.53,2.63,1.61c0.09,0.18,0.2,0.23,0.38,0.23c0.53-0.01,1.05,0,1.57,0
		c1.44,0,2.69-0.5,3.77-1.44c0.79-0.69,1.27-1.6,1.85-2.45c0.06-0.09,0.05-0.23,0.05-0.35c0-1.75,0-3.5,0-5.25
		c0-0.11-0.01-0.23-0.02-0.38C53.08,30.04,51.01,30.5,48.96,30.96 M29.52,39.44c-5.14,0-10.28,0-15.41,0.01
		c-0.24,0-0.51,0.05-0.72,0.16c-0.38,0.2-0.42,0.48-0.18,0.83c0.31,0.46,0.63,0.92,0.92,1.39c0.17,0.27,0.36,0.37,0.68,0.37
		c9.79-0.01,19.59-0.01,29.38-0.01c0.08,0,0.16,0.02,0.23,0c0.11-0.04,0.25-0.08,0.32-0.18c0.39-0.55,0.75-1.13,1.14-1.68
		c0.13-0.18,0.11-0.34-0.02-0.51c-0.23-0.31-0.55-0.39-0.93-0.38C39.79,39.44,34.65,39.44,29.52,39.44 M29.5,32.09h17.29
		c0.46,0,0.54-0.09,0.35-0.51c-0.15-0.33-0.4-0.62-0.58-0.94c-0.17-0.3-0.4-0.39-0.75-0.39c-10.87,0.01-21.74,0.01-32.61,0.01
		c-0.1,0-0.2-0.01-0.3,0c-0.08,0.01-0.19,0.04-0.23,0.1c-0.28,0.4-0.58,0.79-0.8,1.23c-0.21,0.41-0.12,0.51,0.34,0.51H29.5z
		 M43.36,28.39c-0.06-0.05-0.08-0.08-0.1-0.09c-1.06-0.46-2.15-0.8-3.3-0.9c-2.89-0.24-5.77-0.46-8.66-0.68
		c-0.7-0.05-1.4-0.13-2.09-0.08c-3.04,0.2-6.08,0.42-9.12,0.68c-0.92,0.08-1.84,0.24-2.74,0.43c-0.56,0.12-1.1,0.37-1.64,0.56
		c0.01,0.03,0.02,0.06,0.03,0.09H43.36z M12.77,33.95c-0.01,0.03-0.03,0.06-0.04,0.09c0.52,0.38,1.02,0.8,1.72,0.8
		c9.97,0.01,19.95,0,29.92,0.01c0.74,0,1.28-0.36,1.83-0.75c0.04-0.03,0.05-0.08,0.09-0.15H12.77z M46.86,42.17
		c0.17,0.01,0.27,0.03,0.36,0.03c1.44,0,2.89,0.01,4.33,0c1.67-0.01,3.09-1.11,3.53-2.71c0.05-0.19,0.07-0.39,0.1-0.59
		c-0.09,0-0.11,0-0.13,0.01c-0.06,0.05-0.11,0.1-0.17,0.15c-1.5,1.48-3.31,2.23-5.43,2.23c-0.59,0-1.18-0.01-1.77,0.01
		c-0.11,0-0.25,0.04-0.31,0.12C47.2,41.62,47.06,41.87,46.86,42.17 M3.86,38.84c0,0.14-0.01,0.22,0,0.3
		c0.28,1.73,1.78,3.03,3.53,3.05c1.47,0.02,2.95,0,4.42,0c0.09,0,0.18-0.02,0.32-0.03c-0.15-0.23-0.29-0.4-0.39-0.59
		c-0.12-0.24-0.3-0.3-0.56-0.29c-0.63,0.02-1.27,0.01-1.9,0c-1.57-0.03-3-0.51-4.26-1.45C4.64,39.53,4.28,39.2,3.86,38.84
		 M6.57,44.03c-0.02,0.5,0.34,0.9,0.85,0.92c0.36,0.02,0.72,0.01,1.08,0.01c1.46,0,2.93,0,4.39,0c0.59,0,0.97-0.36,0.95-0.92H6.57z
		 M45.14,44.02c0.04,0.53,0.34,0.91,0.8,0.91c1.9,0.02,3.8,0.01,5.7,0.01c0.02,0,0.04,0,0.06-0.01c0.48-0.09,0.82-0.55,0.7-0.91
		H45.14z M4.32,17.39c0.72,0.11,1.38-0.07,1.99-0.45c0.21-0.13,0.36-0.7,0.16-0.81c-0.4-0.23-0.82-0.47-1.27-0.55
		c-0.56-0.09-1.15-0.03-1.73-0.02c-0.13,0-0.26,0.08-0.37,0.15c-0.3,0.18-0.21,0.49-0.24,0.76c-0.07,0.67,0.26,1,0.91,0.92
		C3.95,17.38,4.14,17.39,4.32,17.39 M54.53,17.39c0.44,0,0.74,0.01,1.05,0c0.28-0.01,0.55-0.29,0.56-0.57
		c0.01-0.19-0.02-0.37,0.01-0.55c0.04-0.28-0.1-0.46-0.29-0.61c-0.06-0.04-0.13-0.09-0.2-0.09c-1,0.04-2.03-0.21-2.95,0.43
		c-0.2,0.14-0.24,0.27-0.24,0.48c0,0.2,0.02,0.35,0.23,0.48C53.31,17.31,53.95,17.51,54.53,17.39"/>
	<path class="st0" d="M9.29,21.07c2.02,0,3.67,1.64,3.68,3.66c0,2.03-1.65,3.69-3.69,3.69c-2.02-0.01-3.66-1.66-3.66-3.68
		C5.62,22.72,7.27,21.07,9.29,21.07 M11.13,24.74c0-1-0.84-1.83-1.84-1.83s-1.83,0.83-1.83,1.84c0,1,0.83,1.83,1.84,1.83
		C10.3,26.58,11.13,25.74,11.13,24.74"/>
	<path class="st0" d="M49.73,21.07c2.02,0.01,3.65,1.66,3.65,3.69c-0.01,2.03-1.67,3.67-3.71,3.66c-2.01-0.01-3.64-1.68-3.63-3.71
		C46.05,22.7,47.71,21.06,49.73,21.07 M51.54,24.74c0-1-0.83-1.83-1.83-1.83c-1.01,0-1.83,0.83-1.83,1.83c0,1,0.83,1.83,1.83,1.83
		C50.71,26.58,51.54,25.75,51.54,24.74"/>
	<path class="st0" d="M29.52,21.99c1.71,0,3.43,0.01,5.15,0c0.26,0,0.37,0.06,0.36,0.34c-0.02,0.38-0.03,0.77,0,1.15
		c0.02,0.3-0.09,0.36-0.37,0.36c-3.28-0.01-6.56-0.01-9.83-0.01c-0.17,0-0.35-0.01-0.52,0c-0.22,0.02-0.32-0.05-0.31-0.29
		c0.02-0.41,0.02-0.83,0-1.24c-0.01-0.25,0.08-0.31,0.32-0.31C26.04,21.99,27.78,21.99,29.52,21.99"/>
	<path class="st0" d="M27.28,16.28c-0.07-0.07-0.14-0.14-0.19-0.22c-0.23-0.33-0.44-0.68-0.68-1c-0.16-0.21-0.12-0.32,0.09-0.46
		c1.19-0.78,2.38-1.58,3.57-2.37c0.48-0.32,0.97-0.63,1.44-0.96c0.18-0.13,0.29-0.09,0.4,0.08c0.22,0.34,0.43,0.68,0.68,1
		c0.17,0.22,0.13,0.34-0.1,0.49c-1.42,0.94-2.83,1.88-4.25,2.83c-0.24,0.16-0.49,0.33-0.74,0.49
		C27.44,16.19,27.37,16.23,27.28,16.28"/>
	<path class="st0" d="M7.45,37.6c-1.51,0-2.75-1.24-2.75-2.75c0-1.53,1.25-2.76,2.78-2.76c1.51,0.01,2.74,1.25,2.73,2.77
		C10.2,36.37,8.96,37.6,7.45,37.6 M8.37,34.85c0-0.5-0.42-0.92-0.92-0.91c-0.49,0-0.9,0.41-0.9,0.9c-0.01,0.5,0.4,0.93,0.91,0.93
		C7.95,35.76,8.37,35.35,8.37,34.85"/>
	<path class="st0" d="M54.3,34.86c0,1.51-1.25,2.75-2.76,2.75c-1.53,0-2.76-1.25-2.75-2.78c0.01-1.51,1.26-2.73,2.77-2.73
		C53.07,32.1,54.3,33.34,54.3,34.86 M51.57,33.93c-0.5-0.01-0.93,0.4-0.94,0.9c-0.01,0.5,0.4,0.93,0.9,0.93
		c0.49,0,0.91-0.39,0.92-0.88C52.48,34.38,52.07,33.95,51.57,33.93"/>
</g>
</svg>
