<?xml version="1.0" encoding="utf-8"?>
<!-- Generator: Adobe Illustrator 23.0.5, SVG Export Plug-In . SVG Version: 6.00 Build 0)  -->
<svg version="1.1" id="Capa_1" xmlns="http://www.w3.org/2000/svg" xmlns:xlink="http://www.w3.org/1999/xlink" x="0px" y="0px"
	 viewBox="0 0 55 55" style="enable-background:new 0 0 55 55;" xml:space="preserve">
<style type="text/css">
	.st0{fill:#FFFFFF;}
</style>
<g>
	<path class="st0" d="M38.88,15.71V7.28c0-2.79-2.26-5.05-5.05-5.05h-6.74c-2.79,0-5.05,2.26-5.05,5.05v8.43
		c0,2.47,1.78,4.57,4.21,4.98v11.02c0,0.22,0.09,0.44,0.25,0.6l3.37,3.37c0.33,0.33,0.86,0.33,1.19,0l3.37-3.37
		c0.16-0.16,0.25-0.37,0.25-0.6v-2.18l1.44-1.44c0.33-0.33,0.33-0.86,0-1.19l-1.09-1.09l1.09-1.09c0.33-0.33,0.33-0.86,0-1.19
		l-1.44-1.44v-1.41C37.09,20.28,38.87,18.17,38.88,15.71 M33.22,26.41l1.09,1.09l-1.09,1.09c-0.16,0.16-0.25,0.37-0.25,0.6v2.18
		l-1.68,1.69v-10.6h-1.68v10.6l-1.68-1.69v-10.6h5.05v1.69c0,0.22,0.09,0.44,0.25,0.6l1.09,1.09l-1.09,1.09
		C32.9,25.55,32.9,26.08,33.22,26.41 M33.82,19.07h-6.74c-1.86,0-3.37-1.51-3.37-3.37V7.28c0-1.86,1.51-3.37,3.37-3.37h6.74
		c1.86,0,3.37,1.51,3.37,3.37v8.43C37.19,17.57,35.68,19.07,33.82,19.07"/>
	<path class="st0" d="M32.98,5.6h-5.05c-1.4,0-2.53,1.13-2.53,2.53v1.68c0,0.47,0.38,0.84,0.84,0.84h8.43
		c0.47,0,0.84-0.38,0.84-0.84V8.12C35.5,6.73,34.37,5.6,32.98,5.6 M33.82,8.97h-6.74V8.12c0-0.47,0.38-0.84,0.84-0.84h5.05
		c0.47,0,0.84,0.38,0.84,0.84V8.97z"/>
	<path class="st0" d="M34.66,12.34h-8.43c-0.47,0-0.84,0.38-0.84,0.84v1.68c0,1.4,1.13,2.53,2.53,2.53h5.05
		c1.4,0,2.53-1.13,2.53-2.53v-1.68C35.51,12.71,35.13,12.34,34.66,12.34 M33.82,14.86c0,0.47-0.38,0.84-0.84,0.84h-5.05
		c-0.47,0-0.84-0.38-0.84-0.84v-0.84h6.74V14.86z"/>
	<path class="st0" d="M47.05,39.29c-0.81,0-1.58,0.36-2.11,0.97c-1-1.17-2.75-1.3-3.92-0.31c-0.11,0.09-0.21,0.2-0.3,0.3
		c-0.91-1.06-2.46-1.28-3.63-0.52c-0.42-0.29-0.92-0.45-1.44-0.45h-4.62c-1.24-1.6-3.14-2.53-5.16-2.53h-1.51
		c-1.64,0-3.22,0.62-4.43,1.74c-0.09-0.04-0.19-0.05-0.29-0.05h-5.9c0-0.47-0.38-0.84-0.84-0.84H6.02c-0.46,0-0.84,0.38-0.84,0.84
		v13.48c0,0.47,0.38,0.84,0.84,0.84h13.62c0.47,0,0.84-0.38,0.84-0.84v-0.71l10.83,1.55c0.04,0.01,0.08,0.01,0.12,0.01
		c0.03,0,0.07,0,0.1-0.01l11.85-1.48c1.28-0.15,2.42-0.89,3.09-2l1.69-2.81c0.02-0.03,0.04-0.07,0.05-0.1l1.37-3.2
		c0.61-1.41-0.05-3.04-1.46-3.65C47.8,39.37,47.42,39.29,47.05,39.29 M12.06,51.09h-5.2V39.29h5.2V51.09z M18.8,51.09h-5.05V40.14
		h5.05V51.09z M41.16,43.18c0.01-0.03,0.02-0.05,0.03-0.08l0.62-1.45c0.17-0.4,0.57-0.66,1-0.66c0.6,0,1.09,0.49,1.09,1.09
		c0,0.15-0.03,0.3-0.09,0.43l-1.15,2.69H40.3L41.16,43.18z M38.18,44.35v-2.53c0-0.24-0.03-0.47-0.1-0.7
		c0.49-0.28,1.12-0.13,1.43,0.34c0.21,0.29,0.25,0.67,0.12,1c-0.01,0.02-0.01,0.04-0.02,0.06l-1.14,2.66h-1.13
		C37.8,45.19,38.18,44.81,38.18,44.35 M48.05,42.5l-1.35,3.15l-1.66,2.76c-0.4,0.67-1.08,1.11-1.85,1.2l-11.74,1.47l-10.96-1.57
		V40.4c0.91-1.23,2.35-1.95,3.88-1.95h1.51c1.62,0,3.13,0.81,4.03,2.15c0.16,0.24,0.42,0.38,0.7,0.38h5.05
		c0.29,0,0.55,0.15,0.71,0.39c0.09,0.13,0.13,0.29,0.14,0.45v1.69h-9.41v1.69h7.17l-0.22,0.51c-0.18,0.43,0.02,0.92,0.44,1.11
		c0.11,0.04,0.22,0.07,0.33,0.07h8.43c0.34,0,0.64-0.2,0.77-0.51l2.03-4.73c0.17-0.4,0.57-0.66,1-0.66c0.6,0,1.09,0.49,1.09,1.09
		C48.14,42.22,48.11,42.36,48.05,42.5"/>
	<rect x="42.25" y="29.18" class="st0" width="1.68" height="1.69"/>
	<rect x="39.72" y="31.71" class="st0" width="1.68" height="1.69"/>
	<rect x="44.77" y="31.71" class="st0" width="1.68" height="1.69"/>
	<rect x="42.25" y="34.24" class="st0" width="1.68" height="1.69"/>
	<rect x="14.44" y="6.44" class="st0" width="1.68" height="1.69"/>
	<rect x="11.92" y="8.97" class="st0" width="1.68" height="1.69"/>
	<rect x="16.97" y="8.97" class="st0" width="1.68" height="1.69"/>
	<rect x="14.44" y="11.49" class="st0" width="1.68" height="1.69"/>
	<rect x="43.93" y="9.81" class="st0" width="1.68" height="1.69"/>
	<rect x="42.25" y="11.49" class="st0" width="1.68" height="1.69"/>
	<rect x="45.62" y="11.49" class="st0" width="1.68" height="1.69"/>
	<rect x="43.93" y="13.18" class="st0" width="1.68" height="1.69"/>
	<rect x="17.81" y="24.97" class="st0" width="1.68" height="1.69"/>
	<rect x="16.13" y="26.66" class="st0" width="1.68" height="1.69"/>
	<rect x="19.5" y="26.66" class="st0" width="1.68" height="1.69"/>
	<rect x="17.81" y="28.34" class="st0" width="1.68" height="1.69"/>
</g>
</svg>
