<?xml version="1.0" encoding="utf-8"?>
<!-- Generator: Adobe Illustrator 23.0.5, SVG Export Plug-In . SVG Version: 6.00 Build 0)  -->
<svg version="1.1" id="Capa_1" xmlns="http://www.w3.org/2000/svg" xmlns:xlink="http://www.w3.org/1999/xlink" x="0px" y="0px"
	 viewBox="0 0 77 77" style="enable-background:new 0 0 77 77;" xml:space="preserve">
<style type="text/css">
	.st0{fill:#FFFFFF;}
</style>
<g>
	<path class="st0" d="M46.64,34.22l9.62,6.85c0.43,0.3,1,0.3,1.43,0l9.62-6.85c2-1.42,3.2-3.72,3.21-6.17V13.48
		c0-0.49-0.29-0.93-0.74-1.13L57.46,7.03c-0.31-0.13-0.66-0.13-0.98,0l-12.31,5.32c-0.45,0.2-0.74,0.64-0.74,1.13v14.57
		C43.44,30.5,44.64,32.8,46.64,34.22 M45.89,14.29L56.97,9.5l11.08,4.79v13.76c-0.01,1.66-0.82,3.22-2.18,4.17l-8.9,6.33l-8.9-6.34
		c-1.36-0.96-2.17-2.51-2.18-4.17V14.29z"/>
	<path class="st0" d="M53.77,30.87c0.53,0.4,1.28,0.3,1.7-0.21l9.85-12.31c0.42-0.53,0.34-1.31-0.19-1.73s-1.31-0.34-1.73,0.19
		l-9.11,11.38l-3.96-2.98c-0.35-0.27-0.82-0.32-1.22-0.15c-0.4,0.17-0.69,0.55-0.74,0.98c-0.05,0.44,0.13,0.87,0.48,1.13
		L53.77,30.87z"/>
	<path class="st0" d="M4.03,66.82h1.23v4.92c0,2.04,1.65,3.69,3.69,3.69h7.39c2.04,0,3.69-1.65,3.69-3.69v-4.92h29.55v4.92
		c0,2.04,1.65,3.69,3.69,3.69h7.39c2.04,0,3.69-1.65,3.69-3.69v-4.92h1.23c1.36,0,2.46-1.1,2.46-2.46V45.89
		c0.01-1.78-0.77-3.48-2.13-4.64l4.24-3.01c3.3-2.34,5.27-6.14,5.28-10.19v-17.8c0-0.49-0.29-0.93-0.74-1.13L57.46,1.66
		c-0.31-0.13-0.66-0.13-0.98,0L39.24,9.11c-0.45,0.2-0.74,0.64-0.74,1.13v4.87H19.87c-2.61,0-4.94,1.65-5.8,4.11L6.82,39.82
		c-3.01,0.44-5.24,3.02-5.25,6.06v18.47C1.56,65.72,2.67,66.82,4.03,66.82 M17.57,71.74c0,0.68-0.55,1.23-1.23,1.23H8.95
		c-0.68,0-1.23-0.55-1.23-1.23v-4.92h9.85V71.74z M12.64,64.36h-2.46v-2.46h2.46V64.36z M61.89,71.74c0,0.68-0.55,1.23-1.23,1.23
		h-7.39c-0.68,0-1.23-0.55-1.23-1.23v-4.92h9.85V71.74z M59.43,64.36h-2.46v-2.46h2.46V64.36z M40.96,11.05l16.01-6.92l16.01,6.92
		v16.99c-0.01,3.25-1.59,6.3-4.25,8.18L56.97,44.6l-11.76-8.37c-2.65-1.88-4.23-4.93-4.25-8.18V11.05z M59.43,47.12
		c0.68,0,1.23,0.55,1.23,1.23v2.46c0,0.68-0.55,1.23-1.23,1.23h-7.39c-0.68,0-1.23-0.55-1.23-1.23c0-2.04,1.65-3.69,3.69-3.69H59.43
		z M38.5,24.96h-8.62v-2.46h8.62V24.96z M38.5,20.03h-2.46v-2.46h2.46V20.03z M16.39,20.03c0.52-1.47,1.92-2.46,3.48-2.46h13.7v2.46
		h-3.69c-1.36,0-2.46,1.1-2.46,2.46v2.46c0,1.36,1.1,2.46,2.46,2.46h8.62v0.63c0.01,4.05,1.98,7.84,5.28,10.19l2.11,1.5H9.46
		L16.39,20.03z M4.03,45.89c0-2.04,1.65-3.69,3.69-3.69h41.63l3.72,2.65c-2.76,0.66-4.71,3.13-4.72,5.97c0,2.04,1.65,3.69,3.69,3.69
		h7.39c2.04,0,3.69-1.65,3.69-3.69v-2.46c0-1.52-0.94-2.88-2.36-3.43l3.05-2.17c1.1,0.66,1.78,1.86,1.77,3.14v18.47h-3.69v-2.46
		c0-1.36-1.1-2.46-2.46-2.46h-2.46c-1.36,0-2.46,1.1-2.46,2.46v2.46h-39.4v-2.46c0-1.36-1.1-2.46-2.46-2.46h-2.46
		c-1.36,0-2.46,1.1-2.46,2.46v2.46H4.03V45.89z"/>
	<path class="st0" d="M23.73,20.03h-2.11c-1.57,0-2.96,0.99-3.48,2.46l-4.62,13.13c-0.23,0.64,0.11,1.34,0.75,1.57
		c0.64,0.23,1.34-0.11,1.57-0.75l4.62-13.13c0.17-0.49,0.64-0.82,1.16-0.82h2.11c0.68,0,1.23-0.55,1.23-1.23
		C24.96,20.58,24.41,20.03,23.73,20.03"/>
	<path class="st0" d="M10.18,54.51h7.39c2.04,0,3.69-1.65,3.69-3.69c0-3.4-2.76-6.15-6.16-6.16h-4.92c-2.04,0-3.69,1.65-3.69,3.69
		v2.46C6.49,52.85,8.14,54.51,10.18,54.51 M8.95,48.35c0-0.68,0.55-1.23,1.23-1.23h4.92c2.04,0,3.69,1.65,3.69,3.69
		c0,0.68-0.55,1.23-1.23,1.23h-7.39c-0.68,0-1.23-0.55-1.23-1.23V48.35z"/>
	<path class="st0" d="M26.19,61.89h17.24c1.36,0,2.46-1.1,2.46-2.46v-4.93c0-1.36-1.1-2.46-2.46-2.46H26.19
		c-1.36,0-2.46,1.1-2.46,2.46v4.93C23.72,60.79,24.83,61.89,26.19,61.89 M26.19,54.51h17.24v4.92H26.19V54.51z"/>
</g>
</svg>
