<?xml version="1.0" encoding="utf-8"?>
<!-- Generator: Adobe Illustrator 23.0.5, SVG Export Plug-In . SVG Version: 6.00 Build 0)  -->
<svg version="1.1" id="Capa_1" xmlns="http://www.w3.org/2000/svg" xmlns:xlink="http://www.w3.org/1999/xlink" x="0px" y="0px"
	 viewBox="0 0 67.94 67.7" style="enable-background:new 0 0 67.94 67.7;" xml:space="preserve">
<style type="text/css">
	.st0{fill:#FFFFFF;}
</style>
<g>
	<path class="st0" d="M38.7,55.14h-1.89v-9.27c0-0.52-0.42-0.95-0.95-0.95c-0.52,0-0.95,0.42-0.95,0.95v9.27h-24.6V36.22h7.87
		c0.52,0,0.95-0.42,0.95-0.95c0-0.52-0.42-0.95-0.95-0.95H9.37c-0.52,0-0.95,0.42-0.95,0.95v19.87H6.53c-0.52,0-0.95,0.42-0.95,0.95
		v1.89c0,2.61,2.12,4.73,4.73,4.73h24.6c2.61,0,4.73-2.12,4.73-4.73v-1.89C39.65,55.57,39.22,55.14,38.7,55.14 M37.75,57.98
		c0,1.57-1.27,2.84-2.84,2.84h-1.89v-0.95c0-0.52-0.42-0.95-0.95-0.95c-0.52,0-0.94,0.42-0.94,0.95v0.95H14.1v-0.95
		c0-0.52-0.42-0.95-0.95-0.95c-0.52,0-0.95,0.42-0.95,0.95v0.95h-1.89c-1.57,0-2.84-1.27-2.84-2.84v-0.95h30.28V57.98z"/>
	<path class="st0" d="M54.78,11.62h1.89c0.52,0,0.95-0.42,0.95-0.94c0-0.52-0.42-0.95-0.95-0.95h-1.89c-1.57,0-2.84,1.27-2.84,2.84
		v0.95H51c-0.52,0-0.95,0.42-0.95,0.95c0,0.52,0.42,0.95,0.95,0.95h0.95v2.84c0,0.52,0.42,0.95,0.95,0.95s0.95-0.42,0.95-0.95V15.4
		h0.95c0.52,0,0.95-0.42,0.95-0.95c0-0.52-0.42-0.95-0.95-0.95h-0.95v-0.95C53.84,12.04,54.26,11.62,54.78,11.62"/>
	<path class="st0" d="M59.52,5.94H48.16c-1.57,0-2.84,1.27-2.84,2.84v1.89c0,0.52,0.42,0.95,0.95,0.95c0.52,0,0.95-0.42,0.95-0.95
		V8.78c0-0.52,0.42-0.95,0.95-0.95h11.35c0.52,0,0.95,0.42,0.95,0.95v11.35c0,0.52-0.42,0.95-0.95,0.95H48.16
		c-0.52,0-0.95-0.42-0.95-0.95v-5.68c0-0.52-0.42-0.95-0.95-0.95c-0.52,0-0.95,0.42-0.95,0.95v5.68c0,1.57,1.27,2.84,2.84,2.84
		h11.35c1.57,0,2.84-1.27,2.84-2.84V8.78C62.35,7.21,61.08,5.94,59.52,5.94"/>
	<path class="st0" d="M50.05,43.79c0,1.53,0.92,2.91,2.34,3.5c1.41,0.59,3.04,0.26,4.12-0.82c1.08-1.08,1.41-2.71,0.82-4.12
		c-0.58-1.41-1.96-2.34-3.5-2.34C51.75,40,50.05,41.7,50.05,43.79 M55.73,43.79c0,0.77-0.46,1.46-1.17,1.75
		c-0.71,0.29-1.52,0.13-2.06-0.41c-0.54-0.54-0.71-1.35-0.41-2.06c0.29-0.71,0.98-1.17,1.75-1.17
		C54.88,41.89,55.73,42.74,55.73,43.79"/>
	<path class="st0" d="M59.52,35.27H48.16c-1.57,0-2.84,1.27-2.84,2.84v11.35c0,1.57,1.27,2.84,2.84,2.84h11.35
		c1.57,0,2.84-1.27,2.84-2.84v-1.89c0-0.52-0.42-0.95-0.94-0.95c-0.52,0-0.95,0.42-0.95,0.95v1.89c0,0.52-0.42,0.95-0.95,0.95H48.16
		c-0.52,0-0.95-0.42-0.95-0.95V38.11c0-0.52,0.42-0.95,0.95-0.95h11.35c0.52,0,0.95,0.42,0.95,0.95v5.68c0,0.52,0.42,0.95,0.95,0.95
		c0.52,0,0.94-0.42,0.94-0.95v-5.68C62.35,36.54,61.08,35.27,59.52,35.27"/>
	<path class="st0" d="M26.84,17.15c0.15,0.09,0.32,0.14,0.5,0.14c0.15,0,0.29-0.04,0.42-0.1l5.68-2.84
		c0.32-0.16,0.52-0.49,0.52-0.84s-0.2-0.68-0.52-0.84l-5.68-2.84c-0.29-0.15-0.64-0.13-0.92,0.04c-0.28,0.17-0.45,0.48-0.45,0.8
		v5.68C26.4,16.68,26.57,16.98,26.84,17.15 M28.29,12.2l2.61,1.31l-2.61,1.31V12.2z"/>
	<path class="st0" d="M29.24,22.03c3.44,0,6.55-2.07,7.87-5.26s0.59-6.84-1.85-9.28c-2.44-2.44-6.1-3.16-9.28-1.85
		s-5.26,4.42-5.26,7.87C20.72,18.21,24.53,22.03,29.24,22.03 M29.24,6.89c2.68,0,5.09,1.61,6.12,4.09c1.03,2.47,0.46,5.32-1.43,7.22
		c-1.9,1.89-4.74,2.46-7.22,1.44c-2.47-1.03-4.09-3.44-4.09-6.12C22.61,9.85,25.58,6.89,29.24,6.89"/>
	<path class="st0" d="M38.7,25.81c0.3,0,0.58-0.14,0.76-0.38l2.84-3.78c0.31-0.42,0.23-1.01-0.19-1.32
		c-0.42-0.31-1.01-0.23-1.32,0.19l-2.84,3.78c-0.31,0.42-0.23,1.01,0.19,1.33C38.3,25.74,38.49,25.81,38.7,25.81"/>
	<path class="st0" d="M40.78,29.22c0.18,0.24,0.46,0.38,0.76,0.38c0.2,0,0.4-0.07,0.57-0.19l3.78-2.84c0.42-0.31,0.5-0.91,0.19-1.33
		c-0.31-0.42-0.91-0.5-1.32-0.19l-3.79,2.84C40.55,28.2,40.47,28.8,40.78,29.22"/>
	<path class="st0" d="M50.05,31.3c-0.05-0.25-0.19-0.48-0.41-0.62c-0.22-0.14-0.48-0.19-0.73-0.14l-4.73,0.95
		c-0.52,0.05-0.9,0.52-0.85,1.04c0.05,0.52,0.52,0.9,1.04,0.85h0.19l4.73-0.95c0.25-0.05,0.48-0.19,0.62-0.41
		C50.06,31.81,50.11,31.55,50.05,31.3"/>
	<path class="st0" d="M6.53,31.49h11.35c0.52,0,0.95-0.42,0.95-0.95V15.4c0-0.52-0.42-0.95-0.95-0.95H6.53
		c-0.52,0-0.95,0.42-0.95,0.95v15.14C5.58,31.06,6.01,31.49,6.53,31.49 M7.48,16.35h9.46v13.25H7.48V16.35z"/>
	<path class="st0" d="M14.1,18.24h-1.89c-0.52,0-0.95,0.42-0.95,0.95c0,0.52,0.42,0.95,0.95,0.95h1.89c0.52,0,0.95-0.42,0.95-0.95
		C15.05,18.67,14.62,18.24,14.1,18.24"/>
	<path class="st0" d="M14.1,22.03h-3.79c-0.52,0-0.95,0.42-0.95,0.95c0,0.52,0.42,0.95,0.95,0.95h3.79c0.52,0,0.95-0.42,0.95-0.95
		C15.05,22.45,14.62,22.03,14.1,22.03"/>
	<path class="st0" d="M14.1,25.81h-3.79c-0.52,0-0.95,0.42-0.95,0.95c0,0.52,0.42,0.95,0.95,0.95h3.79c0.52,0,0.95-0.42,0.95-0.95
		C15.05,26.23,14.62,25.81,14.1,25.81"/>
	<path class="st0" d="M37.87,31.2c-0.26-0.45-0.84-0.61-1.3-0.35c-0.45,0.26-0.61,0.84-0.35,1.3l4.17,7.22l-15.14,5.68h-0.07h-0.07
		l-2.46,1.42l-1.64,0.95c-0.43,0.25-0.95,0.32-1.44,0.19c-0.48-0.13-0.89-0.45-1.14-0.88l-1.89-3.27c-0.46-0.89-0.15-1.98,0.71-2.5
		l3.27-1.89l2.36,4.1c0.17,0.29,0.48,0.47,0.82,0.47c0.34,0,0.65-0.18,0.82-0.47c0.17-0.29,0.17-0.66,0-0.95l-2.44-4.22l11.87-9.79
		l0.39,0.67c0.13,0.22,0.33,0.38,0.57,0.44c0.24,0.06,0.5,0.03,0.72-0.09c0.22-0.13,0.38-0.33,0.44-0.58
		c0.06-0.24,0.03-0.5-0.09-0.72l-0.95-1.64c-0.14-0.24-0.38-0.41-0.65-0.45c-0.28-0.05-0.56,0.02-0.78,0.2L20.38,36.95l-4.03,2.33
		c-1.49,0.87-2.2,2.63-1.74,4.29l-0.95,0.54c-1,0.57-1.55,1.69-1.4,2.83c0.15,1.14,0.97,2.08,2.08,2.37
		c0.24,0.06,0.49,0.1,0.74,0.09c0.5,0,0.99-0.13,1.42-0.38l0.95-0.54c0.46,0.47,1.03,0.81,1.66,0.98c0.32,0.09,0.66,0.14,0.99,0.13
		c0.67,0,1.32-0.17,1.89-0.51l0.82-0.47l1.89,3.28c0.78,1.35,2.51,1.82,3.87,1.04c0.65-0.38,1.13-1,1.32-1.72
		c0.2-0.73,0.09-1.5-0.28-2.15l-1.72-3l14.19-5.33c0.26-0.1,0.46-0.31,0.56-0.57c0.09-0.26,0.07-0.55-0.07-0.79L37.87,31.2z
		 M15.52,47.37c-0.22,0.13-0.48,0.16-0.72,0.09c-0.24-0.06-0.45-0.22-0.58-0.43c-0.13-0.22-0.16-0.48-0.09-0.72
		c0.07-0.24,0.23-0.45,0.44-0.58l0.82-0.47l0.95,1.64L15.52,47.37z M27.97,50.02c0.13,0.22,0.16,0.48,0.09,0.72
		c-0.07,0.24-0.23,0.44-0.45,0.57c-0.45,0.26-1.02,0.11-1.29-0.34l-1.89-3.28l1.57-0.9h0.08L27.97,50.02z"/>
</g>
</svg>
