<?xml version="1.0" encoding="utf-8"?>
<!-- Generator: Adobe Illustrator 23.0.5, SVG Export Plug-In . SVG Version: 6.00 Build 0)  -->
<svg version="1.1" id="Capa_1" xmlns="http://www.w3.org/2000/svg" xmlns:xlink="http://www.w3.org/1999/xlink" x="0px" y="0px"
	 viewBox="0 0 96.65 100.94" style="enable-background:new 0 0 96.65 100.94;" xml:space="preserve">
<style type="text/css">
	.st0{fill:#FFFFFF;}
</style>
<g>
	<path class="st0" d="M49.49,60.95c-0.33-0.69-1.15-0.98-1.84-0.66c-1.12,0.53-2.3,0.97-3.5,1.31c-0.5,0.14-0.88,0.55-0.98,1.06
		l-1.46,7.32c-0.14,0.72-0.79,1.25-1.52,1.25h-3.99c-0.74,0-1.38-0.53-1.52-1.25l-1.46-7.32c-0.1-0.51-0.48-0.92-0.98-1.06
		c-1.7-0.47-3.33-1.15-4.86-2.02c-0.45-0.26-1.01-0.23-1.45,0.06l-6.21,4.14c-0.61,0.41-1.44,0.33-1.96-0.19l-2.82-2.83
		c-0.52-0.52-0.6-1.34-0.19-1.96l4.14-6.21c0.29-0.43,0.31-0.99,0.05-1.45c-0.86-1.53-1.54-3.17-2.01-4.86
		c-0.14-0.5-0.55-0.88-1.06-0.98L8.5,43.83c-0.72-0.14-1.25-0.78-1.25-1.52v-3.99c0-0.74,0.52-1.38,1.25-1.52l7.32-1.46
		c0.51-0.1,0.92-0.48,1.06-0.98c0.47-1.69,1.15-3.33,2.01-4.86c0.26-0.45,0.23-1.01-0.05-1.45l-4.14-6.21
		c-0.41-0.61-0.33-1.44,0.19-1.96l2.82-2.82c0.52-0.52,1.35-0.6,1.96-0.19l6.21,4.14c0.43,0.29,0.99,0.31,1.45,0.05
		c1.53-0.86,3.17-1.54,4.86-2.01c0.5-0.14,0.88-0.55,0.98-1.06l1.47-7.32c0.14-0.72,0.78-1.25,1.52-1.25h3.99
		c0.74,0,1.38,0.52,1.52,1.25l1.46,7.32c0.1,0.51,0.48,0.92,0.98,1.06c1.7,0.47,3.33,1.15,4.86,2.01c0.45,0.26,1.01,0.23,1.45-0.05
		l6.21-4.14c0.61-0.41,1.44-0.33,1.96,0.19l2.83,2.82c0.52,0.52,0.6,1.34,0.19,1.96l-4.14,6.21c-0.29,0.43-0.31,0.99-0.05,1.45
		c0.86,1.53,1.54,3.17,2.01,4.86c0.14,0.5,0.55,0.88,1.06,0.98l7.32,1.47c0.72,0.14,1.25,0.78,1.25,1.52v3.99
		c0,0.74-0.52,1.38-1.25,1.52l-7.32,1.46c-0.51,0.1-0.92,0.48-1.06,0.98c-0.34,1.23-0.8,2.44-1.35,3.58
		c-0.33,0.69-0.04,1.52,0.65,1.85c0.69,0.33,1.52,0.04,1.85-0.65c0.5-1.04,0.93-2.11,1.27-3.21l6.51-1.3
		c2.01-0.4,3.47-2.18,3.47-4.24v-3.99c0-2.05-1.46-3.83-3.47-4.24l-6.51-1.3c-0.43-1.34-0.97-2.65-1.61-3.9l3.68-5.52
		c1.14-1.71,0.91-4-0.54-5.45l-2.82-2.82c-1.45-1.45-3.74-1.68-5.45-0.54l-5.52,3.68c-1.25-0.65-2.56-1.19-3.9-1.61l-1.3-6.51
		c-0.4-2.01-2.18-3.47-4.24-3.47h-3.99c-2.05,0-3.83,1.46-4.24,3.47l-1.3,6.51c-1.34,0.43-2.65,0.97-3.9,1.62l-5.52-3.68
		c-1.71-1.14-4-0.91-5.45,0.54l-2.82,2.82c-1.45,1.45-1.68,3.74-0.54,5.45l3.68,5.52c-0.65,1.25-1.19,2.56-1.61,3.9l-6.51,1.3
		c-2.01,0.4-3.47,2.18-3.47,4.24v3.99c0,2.05,1.46,3.83,3.47,4.24l6.51,1.3c0.43,1.34,0.97,2.65,1.61,3.9l-3.68,5.52
		c-1.14,1.71-0.91,4,0.54,5.45l2.82,2.83c1.45,1.45,3.74,1.68,5.45,0.54l5.52-3.68c1.25,0.65,2.56,1.19,3.9,1.61l1.3,6.51
		c0.4,2.01,2.18,3.47,4.24,3.47h3.99c2.05,0,3.83-1.46,4.24-3.47l1.3-6.51c1.07-0.34,2.11-0.75,3.12-1.23
		C49.52,62.47,49.81,61.64,49.49,60.95"/>
	<path class="st0" d="M50.16,48.01c0.2,0.1,0.42,0.15,0.63,0.15c0.5,0,0.99-0.28,1.23-0.75c1.12-2.18,1.71-4.63,1.71-7.09
		c0-8.58-6.98-15.56-15.56-15.56c-4.08,0-7.94,1.57-10.86,4.42c-0.55,0.53-0.56,1.41-0.03,1.96c0.53,0.55,1.41,0.56,1.96,0.03
		c2.4-2.34,5.57-3.63,8.93-3.63c7.05,0,12.79,5.74,12.79,12.79c0,2.05-0.47,4.01-1.4,5.83C49.21,46.83,49.48,47.66,50.16,48.01"/>
	<path class="st0" d="M25.21,34.39c-0.72-0.25-1.51,0.14-1.76,0.86c-0.56,1.63-0.84,3.33-0.84,5.06c0,8.58,6.98,15.56,15.56,15.56
		c3.3,0,6.45-1.02,9.12-2.95c0.62-0.45,0.76-1.31,0.31-1.93c-0.45-0.62-1.31-0.76-1.93-0.31c-2.19,1.59-4.78,2.42-7.49,2.42
		c-7.05,0-12.79-5.74-12.79-12.79c0-1.43,0.23-2.83,0.69-4.16C26.32,35.43,25.94,34.64,25.21,34.39"/>
	<path class="st0" d="M89.5,67.13l-4-0.8c-0.24-0.72-0.54-1.43-0.88-2.12l2.27-3.4c0.87-1.31,0.7-3.07-0.41-4.18l-1.86-1.86
		c-1.11-1.11-2.87-1.29-4.18-0.41l-3.4,2.27c-0.68-0.34-1.39-0.63-2.12-0.88l-0.8-4c-0.31-1.54-1.68-2.66-3.25-2.66h-2.63
		c-1.57,0-2.94,1.12-3.25,2.66l-0.8,4c-0.72,0.24-1.43,0.54-2.12,0.88l-3.4-2.27c-1.31-0.87-3.07-0.7-4.18,0.41l-1.86,1.86
		c-1.11,1.11-1.29,2.87-0.41,4.18l2.26,3.4c-0.47,0.94-0.85,1.93-1.13,2.94c-0.21,0.74,0.22,1.5,0.96,1.71
		c0.74,0.21,1.5-0.22,1.71-0.96c0.3-1.08,0.73-2.12,1.28-3.09c0.26-0.45,0.23-1.01-0.05-1.45l-2.72-4.08
		c-0.14-0.21-0.11-0.51,0.07-0.69l1.86-1.86c0.18-0.18,0.47-0.21,0.69-0.07l4.08,2.72c0.43,0.29,0.99,0.31,1.45,0.05
		c0.97-0.55,2.01-0.98,3.09-1.28c0.5-0.14,0.88-0.55,0.98-1.06l0.96-4.81c0.05-0.25,0.28-0.44,0.53-0.44h2.63
		c0.26,0,0.48,0.18,0.53,0.44l0.96,4.81c0.1,0.51,0.48,0.92,0.98,1.06c1.08,0.3,2.12,0.73,3.09,1.28c0.45,0.26,1.01,0.23,1.45-0.06
		l4.08-2.72c0.22-0.14,0.51-0.11,0.69,0.07l1.86,1.86c0.18,0.18,0.21,0.47,0.07,0.69l-2.72,4.08c-0.29,0.43-0.31,0.99-0.05,1.45
		c0.55,0.97,0.98,2.01,1.28,3.09c0.14,0.5,0.55,0.88,1.06,0.98l4.81,0.96c0.25,0.05,0.44,0.28,0.44,0.53v2.63
		c0,0.26-0.18,0.48-0.44,0.54l-4.81,0.96c-0.51,0.1-0.92,0.48-1.06,0.98c-0.3,1.08-0.73,2.12-1.28,3.09
		c-0.26,0.45-0.23,1.01,0.05,1.45l2.72,4.08c0.14,0.22,0.11,0.51-0.07,0.69l-1.86,1.86c-0.18,0.18-0.47,0.21-0.69,0.07L77.88,84
		c-0.43-0.29-0.99-0.31-1.45-0.05c-0.97,0.55-2.01,0.98-3.09,1.28c-0.5,0.14-0.88,0.55-0.98,1.06L71.4,91.1
		c-0.05,0.25-0.28,0.44-0.53,0.44h-2.63c-0.26,0-0.48-0.18-0.54-0.44l-0.96-4.81c-0.1-0.51-0.48-0.92-0.98-1.06
		c-1.08-0.3-2.12-0.73-3.09-1.28c-0.45-0.26-1.01-0.23-1.45,0.05l-4.08,2.72c-0.22,0.14-0.51,0.11-0.69-0.07l-1.86-1.86
		c-0.18-0.18-0.21-0.47-0.07-0.69l2.72-4.08c0.29-0.43,0.31-0.99,0.05-1.45c-0.55-0.97-0.98-2.01-1.28-3.09
		c-0.14-0.5-0.55-0.88-1.06-0.98l-4.81-0.96c-0.25-0.05-0.44-0.28-0.44-0.53v-2.63c0-0.26,0.19-0.48,0.44-0.53l0.29-0.06
		c0.75-0.15,1.24-0.88,1.09-1.63c-0.15-0.75-0.88-1.23-1.63-1.09l-0.3,0.06c-1.54,0.31-2.66,1.68-2.66,3.25v2.63
		c0,1.57,1.12,2.94,2.66,3.25l4,0.8c0.24,0.72,0.54,1.43,0.88,2.12l-2.26,3.4c-0.87,1.31-0.7,3.07,0.41,4.18l1.86,1.86
		c1.11,1.11,2.87,1.29,4.18,0.41l3.4-2.27c0.69,0.34,1.39,0.63,2.12,0.88l0.8,4c0.31,1.54,1.68,2.66,3.25,2.66h2.63
		c1.57,0,2.94-1.12,3.25-2.66l0.8-4c0.72-0.24,1.43-0.54,2.12-0.88l3.4,2.27c1.31,0.87,3.07,0.7,4.18-0.41l1.86-1.86
		c1.11-1.11,1.29-2.87,0.41-4.18l-2.27-3.4c0.34-0.69,0.63-1.39,0.88-2.12l4-0.8c1.54-0.31,2.66-1.67,2.66-3.25v-2.63
		C92.16,68.81,91.04,67.44,89.5,67.13"/>
	<path class="st0" d="M69.55,66.71c2.75,0,4.98,2.24,4.98,4.98c0,0.77,0.62,1.39,1.38,1.39c0.77,0,1.38-0.62,1.38-1.39
		c0-4.27-3.48-7.75-7.75-7.75c-4.28,0-7.75,3.48-7.75,7.75c0,4.28,3.48,7.75,7.75,7.75c1.73,0,3.37-0.56,4.74-1.61
		c0.6-0.47,0.72-1.34,0.25-1.94c-0.47-0.6-1.34-0.72-1.94-0.25c-0.88,0.68-1.93,1.04-3.04,1.04c-2.75,0-4.98-2.24-4.98-4.98
		C64.57,68.95,66.8,66.71,69.55,66.71"/>
	<path class="st0" d="M46.61,40.32c0-4.65-3.78-8.43-8.43-8.43s-8.43,3.78-8.43,8.43c0,4.65,3.78,8.43,8.43,8.43
		C42.82,48.75,46.61,44.97,46.61,40.32 M32.51,40.32c0-3.12,2.54-5.66,5.66-5.66c3.12,0,5.67,2.54,5.67,5.66
		c0,3.12-2.54,5.67-5.67,5.67S32.51,43.44,32.51,40.32"/>
</g>
</svg>
