<?xml version="1.0" encoding="utf-8"?>
<!-- Generator: Adobe Illustrator 23.0.5, SVG Export Plug-In . SVG Version: 6.00 Build 0)  -->
<svg version="1.1" id="Capa_1" xmlns="http://www.w3.org/2000/svg" xmlns:xlink="http://www.w3.org/1999/xlink" x="0px" y="0px"
	 viewBox="0 0 82.94 55.7" style="enable-background:new 0 0 82.94 55.7;" xml:space="preserve">
<style type="text/css">
	.st0{fill:#FFFFFF;}
</style>
<g>
	<path class="st0" d="M80.5,38.08H37.33V19.2l16.86-6.91v3.7c0,0.88,0.71,1.59,1.59,1.59c1.15,0,2.08,0.93,2.08,2.08
		c0,1.14-0.93,2.08-2.08,2.08c-0.79,0-1.5-0.44-1.86-1.15c-0.39-0.78-1.35-1.1-2.13-0.7c-0.78,0.4-1.1,1.35-0.7,2.13
		c0.9,1.78,2.7,2.89,4.69,2.89c2.9,0,5.25-2.36,5.25-5.25c0-2.34-1.54-4.33-3.66-5.01v-3.8c1.25-0.89,2.01-2.34,2.01-3.92
		c0-1.53-0.7-2.93-1.92-3.85c-1.22-0.92-2.76-1.21-4.23-0.79L31,8.62c-2.01,0.55-3.66,1.73-4.26,3.63
		c-0.43-0.15-0.88-0.22-1.36-0.22H8.68h0H8.67c-1.92,0-3.62,1.3-4.13,3.15L0.9,28.47c-0.05,0.19-0.06,0.39-0.06,0.59v17.72
		c0,0.88,0.71,1.59,1.59,1.59h8.58c0.72,3.01,3.43,5.25,6.65,5.25c3.22,0,5.93-2.24,6.65-5.25h11.01c0.88,0,1.59-0.71,1.59-1.59
		c0-0.88-0.71-1.59-1.59-1.59h-5.66v-3.93h28.54c-1.3,0.95-2.24,2.36-2.61,3.93h-6.32c-0.88,0-1.59,0.71-1.59,1.59
		c0,0.88,0.71,1.59,1.59,1.59h6.32c0.72,3.01,3.42,5.25,6.65,5.25c3.22,0,5.93-2.24,6.65-5.25h11.6c0.88,0,1.59-0.71,1.59-1.59v-7.1
		C82.09,38.79,81.38,38.08,80.5,38.08 M54.09,5.34c0.51-0.14,1.03-0.05,1.45,0.27c0.42,0.32,0.66,0.8,0.66,1.32
		c0,0.67-0.4,1.28-1.03,1.53l-0.01,0c0,0-0.01,0-0.01,0l-17.82,7.3v-1.94c0-1.28-0.46-2.45-1.22-3.37L54.09,5.34z M7.61,16.02
		c0.13-0.48,0.57-0.82,1.07-0.82h5.94v6.13c0,3.29-2.68,5.97-5.97,5.97h-4.1L7.61,16.02z M4.02,30.47h4.63
		c5.04,0,9.14-4.1,9.14-9.14V15.2h7.59c1.03,0,1.11,1.51,1.11,1.97v28.02h-2.18c-0.75-3.15-3.73-5.39-6.96-5.24
		c-3,0.14-5.64,2.32-6.34,5.24H4.02V30.47z M17.66,50.43c-2.02,0-3.66-1.64-3.66-3.66v-0.01c0-2.02,1.64-3.66,3.66-3.66
		c2.02,0,3.66,1.64,3.66,3.66v0C21.32,48.79,19.68,50.43,17.66,50.43 M29.67,38.08V13.83c0-0.96,0.66-1.78,1.55-2.02
		c0.73-0.03,1.32-0.13,1.97,0.32c0.6,0.42,0.97,1.12,0.97,1.85v24.1H29.67z M62.25,50.43c-2.02,0-3.66-1.64-3.66-3.66v0
		c0-2.02,1.64-3.66,3.66-3.66c2.02,0,3.66,1.64,3.66,3.66c0,0,0,0.01,0,0.01C65.91,48.8,64.27,50.43,62.25,50.43 M78.92,45.18H68.9
		c-0.37-1.57-1.32-2.97-2.61-3.93h12.63V45.18z"/>
	<path class="st0" d="M13.75,37.03h2.41c0.88,0,1.59-0.71,1.59-1.59s-0.71-1.59-1.59-1.59h-2.41c-0.88,0-1.59,0.71-1.59,1.59
		S12.87,37.03,13.75,37.03"/>
	<path class="st0" d="M43.97,46.17c-0.26-0.63-0.91-1.02-1.58-0.97c-0.66,0.05-1.23,0.52-1.41,1.16c-0.38,1.35,1.14,2.51,2.34,1.78
		C43.98,47.73,44.26,46.88,43.97,46.17"/>
</g>
</svg>
