<?xml version="1.0" encoding="utf-8"?>
<!-- Generator: Adobe Illustrator 23.0.5, SVG Export Plug-In . SVG Version: 6.00 Build 0)  -->
<svg version="1.1" id="Capa_1" xmlns="http://www.w3.org/2000/svg" xmlns:xlink="http://www.w3.org/1999/xlink" x="0px" y="0px"
	 viewBox="0 0 94.1 89.83" style="enable-background:new 0 0 94.1 89.83;" xml:space="preserve">
<style type="text/css">
	.st0{fill:#FFFFFF;}
</style>
<g>
	<path class="st0" d="M89.6,24.41c-2.32,0-4.2-1.89-4.2-4.2c0-0.71-0.58-1.29-1.29-1.29c-0.71,0-1.29,0.58-1.29,1.29
		c0,2.32-1.89,4.2-4.2,4.2c-0.71,0-1.29,0.58-1.29,1.29c0,0.71,0.58,1.29,1.29,1.29c2.32,0,4.2,1.89,4.2,4.2
		c0,0.71,0.58,1.29,1.29,1.29c0.71,0,1.29-0.58,1.29-1.29c0-2.32,1.89-4.2,4.2-4.2c0.71,0,1.29-0.58,1.29-1.29
		C90.89,24.99,90.31,24.41,89.6,24.41 M84.11,27.22c-0.42-0.58-0.94-1.1-1.52-1.52c0.58-0.42,1.1-0.94,1.52-1.52
		c0.42,0.58,0.94,1.1,1.52,1.52C85.05,26.12,84.53,26.64,84.11,27.22"/>
	<path class="st0" d="M15.48,24.41c-2.32,0-4.2-1.89-4.2-4.2c0-0.71-0.58-1.29-1.29-1.29c-0.71,0-1.29,0.58-1.29,1.29
		c0,2.32-1.89,4.2-4.2,4.2c-0.71,0-1.29,0.58-1.29,1.29c0,0.71,0.58,1.29,1.29,1.29c2.32,0,4.2,1.89,4.2,4.2
		c0,0.71,0.58,1.29,1.29,1.29c0.71,0,1.29-0.58,1.29-1.29c0-2.32,1.89-4.2,4.2-4.2c0.71,0,1.29-0.58,1.29-1.29
		C16.77,24.99,16.19,24.41,15.48,24.41 M9.99,27.22c-0.42-0.58-0.94-1.1-1.52-1.52c0.58-0.42,1.1-0.94,1.52-1.52
		c0.42,0.58,0.94,1.1,1.52,1.52C10.93,26.12,10.42,26.64,9.99,27.22"/>
	<path class="st0" d="M53.91,7.94c-3.07,0-5.58-2.5-5.58-5.58c0-0.71-0.58-1.29-1.29-1.29c-0.71,0-1.29,0.58-1.29,1.29
		c0,3.08-2.5,5.58-5.58,5.58c-0.71,0-1.29,0.58-1.29,1.29s0.58,1.29,1.29,1.29c3.07,0,5.58,2.5,5.58,5.58
		c0,0.71,0.58,1.29,1.29,1.29c0.71,0,1.29-0.58,1.29-1.29c0-3.07,2.5-5.58,5.58-5.58c0.71,0,1.29-0.58,1.29-1.29
		S54.62,7.94,53.91,7.94 M47.05,11.7c-0.64-0.99-1.48-1.83-2.47-2.47c0.99-0.64,1.84-1.48,2.47-2.47c0.64,0.99,1.48,1.83,2.47,2.47
		C48.53,9.86,47.69,10.71,47.05,11.7"/>
	<path class="st0" d="M71.59,61.47c-4.57,0-8.15,2.37-8.15,5.4c0,3.03,3.58,5.4,8.15,5.4c4.57,0,8.15-2.37,8.15-5.4
		C79.74,63.84,76.16,61.47,71.59,61.47 M71.59,69.71c-3.19,0-5.58-1.49-5.58-2.83c0-1.34,2.38-2.83,5.58-2.83
		c3.19,0,5.58,1.49,5.58,2.83C77.16,68.21,74.78,69.71,71.59,69.71"/>
	<path class="st0" d="M22.17,61.47c-4.57,0-8.15,2.37-8.15,5.4c0,3.03,3.58,5.4,8.15,5.4c4.57,0,8.15-2.37,8.15-5.4
		C30.32,63.84,26.74,61.47,22.17,61.47 M22.17,69.71c-3.19,0-5.58-1.49-5.58-2.83c0-1.34,2.38-2.83,5.58-2.83
		c3.19,0,5.58,1.49,5.58,2.83C27.75,68.21,25.36,69.71,22.17,69.71"/>
	<path class="st0" d="M88.06,42.25h-6.86c-0.59,0-1.1,0.4-1.25,0.97l-0.9,3.62l-6.32-17.91c-0.95-2.71-3.52-4.52-6.39-4.52h-38.9
		c-2.87,0-5.44,1.82-6.39,4.52l-6.32,17.91l-0.9-3.62c-0.14-0.57-0.66-0.97-1.25-0.97H5.7c-0.71,0-1.29,0.58-1.29,1.29v5.49
		c0,0.71,0.58,1.29,1.29,1.29h7.11l-4.39,6.14c-0.82,1.16-1.26,2.52-1.26,3.94v16.08c0,2.23,1.08,4.21,2.75,5.44
		c0,0.02,0,0.03,0,0.05v4.12c0,1.47,1.19,2.66,2.66,2.66h8.23c1.47,0,2.66-1.19,2.66-2.66v-2.83H70.3v2.83
		c0,1.47,1.19,2.66,2.66,2.66h8.24c1.47,0,2.66-1.19,2.66-2.66v-4.12c0-0.02,0-0.03,0-0.05c1.67-1.24,2.75-3.22,2.75-5.44V60.4
		c0-1.42-0.44-2.78-1.26-3.94l-4.39-6.14h7.11c0.71,0,1.29-0.58,1.29-1.29v-5.49C89.34,42.83,88.77,42.25,88.06,42.25 M6.99,47.74
		v-2.92h4.57l0.73,2.92H6.99z M20.89,86.09c0,0.05-0.04,0.09-0.09,0.09h-8.23c-0.05,0-0.09-0.04-0.09-0.09v-2.83h1.46h6.95V86.09z
		 M81.28,86.09c0,0.05-0.04,0.09-0.09,0.09h-8.23c-0.05,0-0.09-0.04-0.09-0.09v-2.83h6.95h1.46V86.09z M79.82,80.69H13.94
		c-1.87,0-3.46-1.23-4-2.92h73.88C83.28,79.46,81.69,80.69,79.82,80.69 M57.94,69.71H35.81v-2.92h22.13V69.71z M36.02,64.22
		c0.54-1.69,2.13-2.92,4-2.92h13.72c1.87,0,3.46,1.23,4,2.92H36.02z M57.94,75.2H35.81v-2.92h22.13V75.2z M83.24,57.96
		c0.51,0.72,0.78,1.56,0.78,2.44v14.8h-23.5V65.5c0-3.74-3.04-6.78-6.78-6.78H40.02c-3.74,0-6.78,3.04-6.78,6.78v9.69H9.74V60.4
		c0-0.88,0.27-1.73,0.78-2.44l5.46-7.64h47.38c0.71,0,1.29-0.58,1.29-1.29s-0.58-1.29-1.29-1.29H17.13l6.34-17.95
		c0.59-1.68,2.18-2.81,3.96-2.81h38.9c1.78,0,3.37,1.13,3.96,2.81l6.34,17.95h-7.79c-0.71,0-1.29,0.58-1.29,1.29
		s0.58,1.29,1.29,1.29h8.95L83.24,57.96z M86.77,47.74h-5.3l0.73-2.92h4.57V47.74z"/>
	<path class="st0" d="M26.29,57.35h-8.24c-0.71,0-1.29,0.58-1.29,1.29s0.58,1.29,1.29,1.29h8.24c0.71,0,1.29-0.58,1.29-1.29
		S27,57.35,26.29,57.35"/>
	<path class="st0" d="M75.7,57.35h-8.24c-0.71,0-1.29,0.58-1.29,1.29s0.58,1.29,1.29,1.29h8.24c0.71,0,1.29-0.58,1.29-1.29
		S76.41,57.35,75.7,57.35"/>
</g>
</svg>
